<?xml version="1.0" encoding="utf-8"?>
<!-- Generator: Adobe Illustrator 19.0.0, SVG Export Plug-In . SVG Version: 6.00 Build 0)  -->
<svg version="1.1" xmlns="http://www.w3.org/2000/svg" xmlns:xlink="http://www.w3.org/1999/xlink" x="0px" y="0px"
	 viewBox="0 0 44.5 68.1" style="enable-background:new 0 0 44.5 68.1;" xml:space="preserve">
<style type="text/css">
	.st0{display:none;}
	.st1{display:inline;fill:#526044;}
	.st2{fill:#526044;}
	.st3{display:none;fill:#526044;}
</style>
<g id="Layer_2" class="st0">
	<polygon id="XMLID_3_" class="st1" points="-207.4,27.2 -193.9,7.4 -180.4,27.2 	"/>
	<polygon id="XMLID_2_" class="st1" points="-211.2,39.2 -193.9,13.8 -176.6,39.2 	"/>
	<polygon id="XMLID_9_" class="st1" points="-217,54.4 -193.9,20.4 -170.8,54.4 	"/>
	<polygon id="XMLID_10_" class="st1" points="-221.2,67.1 -193.9,27 -166.6,67.1 	"/>
	<rect id="XMLID_1_" x="-197.6" y="64.8" class="st1" width="7.4" height="10.8"/>
	<rect id="XMLID_4_" x="-38.4" y="71" class="st1" width="27.7" height="10"/>
	<polygon id="XMLID_12_" class="st1" points="-45.8,71 -24.6,49.8 -3.4,71 	"/>
	<rect id="XMLID_11_" x="-38.1" y="54.6" class="st1" width="5" height="8.8"/>
	<rect id="XMLID_13_" x="-38.1" y="41.9" class="st1" width="0.8" height="7.9"/>
	<rect id="XMLID_16_" x="-33.8" y="44.7" class="st1" width="0.8" height="4.1"/>
	<rect id="XMLID_18_" x="-33.8" y="42.2" class="st1" width="0.8" height="1"/>
	<rect id="XMLID_19_" x="-33.8" y="40.3" class="st1" width="0.8" height="1"/>
	<rect id="XMLID_20_" x="-38.1" y="39.2" class="st1" width="0.8" height="1"/>
	<rect id="XMLID_17_" x="-35.9" y="44" class="st1" width="0.8" height="7.9"/>
	
		<image style="display:inline;overflow:visible;opacity:0.43;" width="345" height="130" id="XMLID_5_" xlink:href="D:\Henriette\Pictures\2017-12-11 20_47_31-Mock-ups.png"  transform="matrix(0.75 0 0 0.75 -233.929 -3.5801)">
	</image>
</g>
<g id="Layer_1">
	<polygon id="XMLID_22_" class="st2" points="44.5,59.7 37.4,46.9 41.1,46.9 32.7,31.8 36.4,31.8 29.7,19.8 33.2,19.8 22.3,0 
		11.3,19.8 14.8,19.8 8.1,31.8 11.8,31.8 3.4,46.9 7.1,46.9 0,59.7 19.3,59.7 19.3,68.1 25.2,68.1 25.2,59.7 	"/>
	<g id="XMLID_14_" class="st0">
		<polygon id="XMLID_30_" class="st1" points="-96.1,36.9 -104.6,45.4 -104.6,41.7 -109.6,41.7 -109.6,50.4 -117.3,58.1 
			-109.9,58.1 -109.9,68.1 -82.2,68.1 -82.2,58.1 -74.8,58.1 		"/>
		<rect id="XMLID_31_" x="-109.6" y="29" class="st1" width="0.8" height="7.9"/>
		<rect id="XMLID_32_" x="-105.3" y="31.8" class="st1" width="0.8" height="4.1"/>
		<rect id="XMLID_33_" x="-105.3" y="29.3" class="st1" width="0.8" height="1"/>
		<rect id="XMLID_34_" x="-105.3" y="27.5" class="st1" width="0.8" height="1"/>
		<rect id="XMLID_35_" x="-109.6" y="26.3" class="st1" width="0.8" height="1"/>
		<rect id="XMLID_36_" x="-107.4" y="31.1" class="st1" width="0.8" height="7.9"/>
	</g>
	<polygon id="XMLID_8_" class="st3" points="-196.5,64.5 -199.8,59 -198.1,59 -202,52.5 -200.3,52.5 -203.4,47.3 -201.8,47.3 
		-206.9,38.8 -212.1,47.3 -210.4,47.3 -213.5,52.5 -211.8,52.5 -215.8,59 -214,59 -217.4,64.5 -208.3,64.5 -208.3,68.1 -205.5,68.1 
		-205.5,64.5 	"/>
	<polygon id="XMLID_15_" class="st3" points="-222.4,59.7 -231,46.9 -226.5,46.9 -236.9,31.8 -232.4,31.8 -240.5,19.8 -236.2,19.8 
		-249.7,0 -263.2,19.8 -258.8,19.8 -267,31.8 -262.5,31.8 -272.8,46.9 -268.3,46.9 -277,59.7 -253.4,59.7 -253.4,68.1 -246,68.1 
		-246,59.7 	"/>
</g>
</svg>
