<?xml version="1.0" encoding="utf-8"?>
<!-- Generator: Adobe Illustrator 19.0.0, SVG Export Plug-In . SVG Version: 6.00 Build 0)  -->
<svg version="1.1" id="Layer_1" xmlns="http://www.w3.org/2000/svg" xmlns:xlink="http://www.w3.org/1999/xlink" x="0px" y="0px"
	 viewBox="-408 286.3 24 24" style="enable-background:new -408 286.3 24 24;" xml:space="preserve">
<style type="text/css">
	.st0{fill:#899A79;}
</style>
<path class="st0" d="M-394.1,300.4c-0.3,0-0.5,0.2-0.7,0.4v-1.9h-0.8v5.9h0.8v-0.3c0.2,0.3,0.5,0.4,0.8,0.4c0.5,0,0.7-0.4,0.7-1
	v-2.4C-393.3,300.9-393.5,300.4-394.1,300.4z M-394.2,303.8c0,0.1,0,0.2-0.1,0.3c-0.1,0.1-0.3,0.1-0.4,0l-0.2-0.2v-2.7l0.2-0.1
	c0.1-0.1,0.3-0.1,0.4,0.1c0.1,0.1,0.1,0.2,0.1,0.3V303.8z M-396.9,295.3v-2.1c0-0.3,0.1-0.4,0.4-0.4c0.3,0,0.4,0.2,0.4,0.4v2.1
	c0,0.2-0.1,0.4-0.4,0.4C-396.7,295.7-396.9,295.5-396.9,295.3z M-398.7,299.8h-0.9v5h-0.9v-5h-0.9v-0.9h2.8
	C-398.7,298.9-398.7,299.8-398.7,299.8z M-397.2,300.5h0.8v4.3h-0.8v-0.5c-0.1,0.2-0.3,0.3-0.5,0.4c-0.4,0.2-1,0.2-1-0.6v-3.6h0.8
	v3.3c0,0.2,0,0.3,0.2,0.3c0.2,0,0.4-0.2,0.5-0.3V300.5z M-408,286.3v24h24v-24C-384,286.3-408,286.3-408,286.3z M-394.6,291.9h0.8
	v3.5c0,0.2,0,0.3,0.2,0.3c0.2,0,0.4-0.2,0.5-0.3v-3.5h0.8v4.6h-0.8V296c-0.4,0.4-0.7,0.6-1,0.6c-0.5,0-0.6-0.4-0.6-0.8L-394.6,291.9
	L-394.6,291.9z M-396.5,291.9c0.7,0,1.2,0.5,1.2,1.2v2.2c0,0.8-0.5,1.2-1.2,1.2c-0.8,0-1.2-0.4-1.2-1.2v-2.2
	C-397.7,292.4-397.2,291.9-396.5,291.9z M-399.9,290.3l0.7,2.5l0.6-2.5h1l-1.1,3.7v2.5h-1v-2.5l-1.1-3.7
	C-400.9,290.3-399.9,290.3-399.9,290.3z M-391.4,306.2c-1.7,0.1-7.4,0.1-9.1,0c-1.9-0.1-2.1-1.3-2.1-4.2c0-3,0.2-4.1,2.1-4.2
	c1.7-0.1,7.4-0.1,9.1,0c1.9,0.1,2.1,1.3,2.1,4.2C-389.3,304.9-389.6,306.1-391.4,306.2z M-391.5,300.4c-0.7,0-1.2,0.5-1.2,1.3v1.9
	c0,0.8,0.4,1.3,1.2,1.3c0.9,0,1.2-0.5,1.2-1.3v-0.3h-0.8v0.3c0,0.4,0,0.6-0.4,0.6c-0.3,0-0.4-0.3-0.4-0.6v-0.8h1.5v-1.1
	C-390.3,300.9-390.7,300.4-391.5,300.4z M-391.2,302.1h-0.7v-0.4c0-0.3,0.1-0.5,0.4-0.5c0.3,0,0.4,0.2,0.4,0.5V302.1z"/>
</svg>
