<?xml version="1.0" encoding="utf-8"?>
<!-- Generator: Adobe Illustrator 21.0.2, SVG Export Plug-In . SVG Version: 6.00 Build 0)  -->
<svg version="1.1" id="Layer_1" xmlns="http://www.w3.org/2000/svg" xmlns:xlink="http://www.w3.org/1999/xlink" x="0px" y="0px"
	 viewBox="0 0 200 200" style="enable-background:new 0 0 200 200;" xml:space="preserve">
<style type="text/css">
	.st0{display:none;fill:#3A3232;}
	.st1{fill:#FFFFFF;}
	.st2{display:none;}
	.st3{display:inline;fill:#FFFFFF;}
</style>
<rect class="st0" width="200" height="200"/>
<g id="outdoor">
	<path class="st1" d="M33.9,199.6c-0.8-0.6-1.7-1-2.2-1.7c-0.7-1-1.4-2.3-1.4-3.5c-0.1-17-0.1-34,0-50.9c0-0.5,0.1-1,0.3-1.3
		c2.8-4.2,3.9-8.9,4.8-13.7c0.6-3.2,1-6.4,1.5-9.8c3.2,0,6.4,0,9.6,0.1c0.3,0,0.8,0.8,0.9,1.3c0.7,4,1.2,8.1,2,12
		c0.8,3.6,1.9,7,4,10.1c0.3,0.4,0.4,1,0.4,1.5c0,16.8,0,33.6,0,50.4c0,2.4-1,4.2-3.3,5.3c-0.2,0.1-0.3,0.3-0.4,0.4
		c-1.2,0-2.3,0-3.5,0c-3.2-1.6-3.8-4.3-3.8-7.6c0.1-11.7,0-23.3,0-35c0-0.4,0.1-0.8,0-1.1c-0.1-0.3-0.6-0.6-0.9-0.6
		c-0.3,0-0.8,0.3-0.9,0.6c-0.2,0.4-0.1,0.8-0.1,1.3c0,12.3,0,24.6,0,37c0,2.3-1,3.9-3,5c-0.2,0.1-0.4,0.3-0.6,0.5
		C36.2,199.6,35.1,199.6,33.9,199.6z"/>
	<path class="st1" d="M161.4,157.3c0.8-0.1,1.6-0.2,2.3-0.1c0.2,0.1,0.3,1,0.4,1.5c0.2,1.4,0.4,2.8,0.6,4.2c0,0.2,0,0.4,0,0.6
		c-0.3,1.1-0.6,2.2-0.8,3.2c1.8,0,3.3-0.1,4.8,0c1.4,0.1,2.9,0.7,4.2,0.3c1.5-0.4,2.5,0.2,3.7,0.6c0.4,0.1,0.6,0.7,1,1.1
		c-0.4,0.3-0.7,0.6-1.1,0.7c-0.2,0.1-0.6,0-0.9,0c-39.1,0-78.3,0-117.4,0c-2,0-2,0-1.8-2.2c1.3,0.2,2.5-1,3.9,0
		c0.2,0.1,0.5-0.1,0.8-0.1c1.5-0.1,3.1-0.3,4.6-0.3c0.5,0,1,0.4,1.7,0.6c-0.1-1.5,0.6-2.8-0.5-3.9c-0.1-0.1-0.2-0.3-0.1-0.4
		c0.7-1.8,0.6-3.7,0.8-5.6c0.1-0.8,1.7-0.7,2.5,0.2c2.5-2.5,4.9-4.9,7.4-7.4c11.8-11.9,23.5-23.7,35.3-35.6c0.2-0.2,0.5-0.4,0.6-0.6
		c0.8-1.9,2.4-1.2,3.8-1.3c0.2,0,0.5,0.2,0.6,0.3c2.3,2.4,4.5,4.9,6.9,7.3c9.4,9.5,18.9,19.1,28.4,28.6
		C155.7,151.9,158.7,154.6,161.4,157.3z M111.8,117.6c-0.1-0.1-0.3-0.2-0.4-0.3c-1,1.1-2,2.2-3,3.2c-12.6,12.7-25.1,25.3-37.7,38
		c-0.7,0.7-1.4,1.2-0.3,2.2c0.2,0.1,0.2,0.7,0.1,0.8c-1.7,1.5,0.5,3.4-0.8,4.9c1.6,0.3,2.9,0.5,3.9,0.7c1.1-0.1,2.1-0.6,2.7-0.3
		c1.2,0.6,1.7,0,2.3-0.7c1.1-1.3,2.1-2.6,3.2-3.9c9.6-12,18.7-24.3,26.4-37.7C109.3,122.4,110.5,120,111.8,117.6z M161.5,166.9
		c0.1-1.4,0.2-2.7,0.2-4.1c0-0.3-0.4-0.6-0.5-1s-0.2-1,0-1.2c0.9-0.8,0.4-1.4-0.2-2c-4.5-4.5-9.1-9.1-13.6-13.6
		c-9-9.1-18.1-18.2-27.1-27.4c-0.1-0.1-0.3-0.1-0.5-0.2c0,0.2,0,0.3,0.1,0.4c0.8,1.5,1.5,3.1,2.4,4.6c8.7,15.6,19.4,29.9,30.7,43.7
		c0.3,0.3,0.7,0.6,1.1,0.8c0.9,0.4,1.7-0.1,1.7-1.1c0-0.5,0-1.1,0-1.6c0-2.9,0-5.8,0-8.7c0.1-0.1,0.3-0.2,0.4-0.2c0.9,1,1.8,2,2.8,3
		c0.7,0.8,1.7,1.4,0.9,2.7c-0.2,0.3,0.2,0.8,0.2,1.2c0.1,0.7,0.3,1.3,0.1,2C159.9,165.3,160.4,166.4,161.5,166.9z M115.7,137.4
		c-1.5,10-3.8,19.8-7.5,29.1c1.3,0.2,2.4,0.3,3.6,0.5c0.6,0,1.7-0.4,2.1-0.1c1.2,1.1,2.1,0,3.2-0.1c0.4,0,0.8-0.3,1.2-0.2
		c1.6,0.2,3.3,0.4,5.2,0.7C119.5,157.4,117.2,147.5,115.7,137.4z"/>
	<path class="st1" d="M165.5,141.2c-0.2,0.4-0.3,0.7-0.6,1.3c-0.3-0.6-0.5-0.9-0.6-1.1c-0.8,0.3-1.5,0.6-2.3,0.9
		c-0.2-0.4-0.4-0.7-0.5-1c-0.1,0-0.3,0-0.4,0c-0.2,0.8-0.6,1.7-0.6,2.5c-0.1,3.3,0,6.5,0,9.8c0,0.5,0,0.9-0.1,1.7
		c-1.7-1.7-3.2-3.1-4.6-4.6c-0.2-0.2-0.2-0.8-0.2-1.2c0-2.2,0-4.4,0-6.6c-0.5-0.3-1-0.6-1.4-0.8c-1.1,0.1-2,0.3-3.1,0.4
		c-0.1-0.4-0.2-0.7-0.2-0.7c-1-0.2-1.8-0.5-2.4-0.3c-1.3,0.4-2.2-0.2-3-1c-0.7-0.7-1.4-1.4-2.1-2.1c-1.7-1.7-1.7-1.7-0.7-4.1
		c0.8,0.1,1.7,0.2,1.2-1.2c-0.2-0.7,1.2-1.7,2.3-1.8c0.2-0.6,0.3-1.1,0.5-1.7c-0.9-1.4-2.2-1.4-4.7,0.1c-0.2-0.3-0.3-0.5-0.3-0.5
		c-1.1,0.1-1.9,0.2-2.7,0.3c-0.1-0.1-0.2-0.3-0.3-0.4c0.7-0.6,1.3-1.5,2-1.6c1.4-0.1,1.1-0.8,0.9-1.6c1-0.4,1.9-0.8,1.7-2.2
		c0-0.3,0.2-0.7,0.4-0.9c0.8-0.8,1.7-1.5,2.6-2.3c0.5-0.5,0.9-1,1.4-1.6c-0.1-0.1-0.2-0.2-0.3-0.4c0.3,0,0.6-0.1,0.9-0.1
		c-0.1-0.1-0.1-0.2-0.2-0.3c0.6-0.6,1.2-1.2,2-2c-1.8,0-3.3,0-5,0c-0.1-0.2-0.2-1.3-1.3-0.2c0-0.2-0.1-0.4-0.1-0.6
		c0.7-0.5,1.5-0.9,2.2-1.4c0.1-0.1,0.3-0.1,0.4-0.2c0.4-1,0.9-2.1,1.3-3.1c-0.1-0.1-0.2-0.2-0.3-0.3c0.4-0.1,0.8-0.1,1.2-0.2
		c0.3-0.1,0.7-0.4,1-0.6c0.7-0.8,1.4-1.6,2.2-2.5l0.1-0.1c-0.5-1.7,1.5-2,1.9-3.2c0.5-1.5,2-2.8,2.7-2.8c0.5-1.1,1-2,1.4-2.9
		c0.2,0,0.3,0.1,0.5,0.1c0.1,0.6,0.2,1.2,0.3,1.6c1.1,0.7,2.2,1.4,3.3,2.1c-0.1,0.4-0.3,0.8-0.4,1.2c0.9,0.7,2.3,1.2,2.4,2
		c0.2,1.4,2,1.6,2,3.1c0,0.4,1.2,0.7,2,1.2c0.2,0.6,0.5,1.6,0.8,2.5c1.6-0.1,1.6,0,2.1,2.7c0.3,0,0.6-0.1,1-0.2c0,0.7,0,1.3,0,2.1
		c-0.5-0.4-0.9-0.7-1.4-1.1c-0.2,0.3-0.5,0.6-0.7,0.8c-0.9-0.2-1.7-0.3-2.7-0.5c0.2,0.9,0.5,1.8,0.7,2.8c0.4-0.1,0.8-0.2,1.3-0.3
		c0.3,0.8,0.1,2.1,1.6,2.2c-0.1,0.3-0.1,0.6-0.2,0.8c0.5,0.1,0.9,0.2,1.3,0.4c0.8,0.4,0.5,1.7,1.4,2.1c0.2,0.1,0.3,0.4,0.4,0.7
		c0.2,0.3,0.5,0.6,0.5,0.9c-0.3,1.3,0.4,1.3,1.4,1.6c0.8,0.2,1.8,0.9,2,2.4c-2-0.9-3.7-0.4-5.4,0c-0.4,0.1-1-0.5-1.9-0.9
		c-0.3,0.1-1,0.3-0.3,1.4c0.4,0.6,0.5,1.4,0.7,2c2.1,0.9,3.6,2.4,4.3,4.6c0.4,1.2,1.2,2.2,2.5,2.7c0.5,0.2,0.8,0.9,1,1.5
		c0.5,0.4,1,0.7,1.4,1.1c-0.1,0.2-0.2,0.4-0.2,0.6c-1.1-0.2-2.1-0.4-3.4-0.6c-0.1,0.1-0.5,0.5-1,0.9c-0.7-0.8-1.4-1.8-2.1,0.1
		c-0.3-0.6-0.5-0.9-0.7-1.3c-0.3,0.2-0.5,0.5-0.8,0.7c-0.9-1.4-2-0.3-3-0.4C167.6,141.6,166.4,142.5,165.5,141.2z"/>
	<path class="st1" d="M40.9,104.5c3.2,2.4,6.9,2.9,10.6,3.4c0.1,3.5-3.4,8-8.5,8.5c-4.7,0.5-8.9-2.4-10.3-6.8
		c-1.4-4.5,0.4-9.3,4.5-11.6c3.2-1.8,7.6-1.5,10.6,0.7c0.7,0.5,1.6,0.7,2.4,0.9c2.2,0.5,4.5,0.8,6.7,1.4c0.7,0.2,1.7,1.2,1.6,1.7
		c-0.1,0.7-0.9,1.6-1.6,1.9c-3.3,1.4-6.8,1.7-10.3,1.2C44.8,105.4,42.9,104.9,40.9,104.5z"/>
	<path class="st1" d="M53.7,130.5c0,2.1,0,4.2,0,6.2c-0.1,0-0.2,0-0.4,0c-2.1-5.7-3.2-11.7-3.6-18c3.1-0.1,5.5,1.1,7.4,3.2
		c2.9,3.1,4.2,7,5.1,11.1c1.7,7.7,1.6,15.5,1.2,23.3c-0.1,2.6-1.4,3.9-3.4,4c-2.3,0.1-3.7-1.5-3.7-3.8c0-5.5,0.1-11-0.2-16.5
		c-0.1-2.7-1-5.4-1.5-8.2c-0.1-0.4-0.3-0.9-0.5-1.3C53.9,130.5,53.8,130.5,53.7,130.5z"/>
	<path class="st1" d="M34.2,118.7c-0.4,6.3-1.6,12.3-3.9,18.1c0-2.2,0-4.4,0-6.6c-0.2,0-0.3-0.1-0.5-0.1c-0.2,1-0.6,1.9-0.8,2.9
		c-1.7,6.6-1.8,13.3-1.6,20c0,1.3,0.2,2.6,0.2,3.9c0,1.9-1.4,3.3-3.2,3.4c-2.1,0.1-3.6-1-3.7-3.1c-0.5-9.1-0.7-18.1,1.9-27
		c1-3.4,2.4-6.5,5.1-8.9C29.3,119.6,31.4,118.6,34.2,118.7z"/>
	<path class="st1" d="M45.3,117.5c1.7-1.4,3.9-2.5,5.2-4.3c1.4-1.9,2.8-2.4,4.8-2.2c1.1,0.1,2.2,0,3.3,0c1.6,0.1,2.4,0.8,2.4,2.4
		c0,2.3,0.1,4.6,0,6.9c0,0.6-0.5,1.3-0.9,1.8c-0.2,0.2-1.2,0.1-1.4-0.1c-2.8-3.4-6.4-4.8-10.8-4.5C46.9,117.5,45.9,117.5,45.3,117.5
		z"/>
	<path class="st1" d="M39,117.5c-1.5,0-2.8,0-4.2,0c-3.8-0.2-6.8,1.3-9.2,4.1c-0.3,0.4-1.1,0.9-1.3,0.7c-0.5-0.4-1.2-1-1.3-1.6
		c-0.1-2.7-0.1-5.4,0-8.1c0.1-1.1,1-1.7,2.1-1.7c2,0,4,0,6,0c0.4,0,0.9,0.3,1,0.6c1.5,2.7,3.7,4.5,6.6,5.5
		C38.8,117.1,38.8,117.2,39,117.5z"/>
	<path class="st1" d="M130.3,94.4c-2.5,3.4-2.9,6.7-0.6,10.1c2.3,3.3,5.5,4,9.3,3c-1.3,2.5-5,3.7-8.4,2.9c-3.4-0.8-6-4.1-6.1-7.7
		C124.4,98.7,126.6,95.5,130.3,94.4z"/>
	<path class="st1" d="M24.6,161.9c1.5-1.1,2.8-2.1,4.4-3.3c0,1.6,0,3,0,4.4c0,0.1-0.2,0.3-0.3,0.4C27.2,164.2,25.1,163.2,24.6,161.9
		z"/>
	<path class="st1" d="M55,163.4c0-1.6,0-3.1,0-4.7c1.4,1.1,2.8,2.1,4.2,3.2C58.9,163.4,57.9,163.8,55,163.4z"/>
	<path class="st1" d="M142.2,141.4c-1.3-0.2-2.5-0.3-4.1-0.5c0-0.2,0-0.8-0.1-1.4c0.8,0,1.7-0.2,2.4,0.1
		C141,140,141.5,140.8,142.2,141.4z"/>
</g>
<g id="fishing" class="st2">
	<path class="st3" d="M27.6,128.2c1.5-0.8,1.5-0.8,2.7,2.2c0-5,0-10,0-15c0.2,0,0.4,0,0.5,0c0,5,0,10,0,15c0.2,0,0.4,0,0.5,0
		c0.1-0.5,0.1-1,0.1-1.5c0-4,0-8,0-12c0-0.5,0.3-0.9,0.5-1.4c0.2,0.1,0.4,0.1,0.6,0.2c0,0.6,0,1.2,0,1.9c0,4.7-0.7,9.6,0.2,14.2
		c1.1,5.5,0.2,10.9,0.7,16.4c0,0.4,0.1,1-0.1,1.2c-0.4,0.5-1,1-1.4,1c-0.5,0-1.3-0.7-1.3-1.1c-0.1-5.2-0.1-10.3,0-15.5
		c0-0.7,0.5-1.4,0.9-2.2c-0.7,0-1.2,0-1.8,0c-0.4,2.8-0.6,3-2.3,2.1C27.6,131.8,27.6,130,27.6,128.2z"/>
	<path class="st3" d="M37.7,87.8c-1.5,3.1-2.1,6.4-2.2,9.7c-0.2,4.5-0.1,9.1-0.1,13.6c0,2.2-1.1,3.7-2.9,3.8c-2,0.1-3.3-1-3.4-3.2
		c-0.5-8.5-0.7-17,2.1-25.2c0.6-1.8,1.5-3.5,2.5-5.1c2-3,4.8-4.5,8.6-4.4c4,0.1,7.9,0,11.9,0c11.1,0.1,20.6-3.9,29-10.7
		c0.6-0.5,1.1-1,1.7-1.4c1.3-0.8,2.9-0.5,3.9,0.6c1,1,1.4,3,0.3,3.9c-2.2,1.8-1.6,3.8-1.3,6.1c1.9,0.2,2.3,1.6,2.5,3.2
		c0.2,1.1,0.7,2.2,1,3.3c1.1,4.3,2.4,8.6,3.3,13c0.7,3.1,1.1,6.2,3,9c1.3,1.8,1.7,4.2,2.5,6.2c-1.5,0.2-2.9,0.2-4,0.7
		c-1.6,0.9-2.6,2.5-2.9,4.3c-0.7,3.6-1.3,7.2-2,10.7c-0.3,1.5,0.3,2.5,1.3,3.5c2.4,2.5,3.3,5.6,3,9.3c-1.8-2.6-3.7-4.8-6.8-4.8
		c-2.9,0-5.4,1.3-7.2,3.7c-0.1,0-0.3-0.1-0.4-0.1c0.4-1.4,0.6-2.9,1.2-4.2c0.5-1.3,1.2-2.6,2.2-3.6c1.8-1.7,2.2-3.7,1.8-6
		c-0.7-4.1-1.3-8.1-2-12.2c-0.1-1-0.6-1.4-1.6-1.3c-1.1,0.1-2.3,0.2-3.6,0.4c0.1-2.1,1.1-3.7,2.9-4.8c1.5-0.9,2-2,1.8-3.6
		c-0.2-1.8-0.1-3.7,0-5.5c0-1.9-0.5-2.5-2.4-2.5c-0.4,0-0.7,0-1.6,0.1c1.2-1.7,2.2-3.2,3.3-4.6c0.9-1,1.2-2,1.2-3.4
		c0-2.4,0.1-4.8,0.5-7.1c0.2-1.2,1.4-2.2,1.8-3.3c0.4-1.2,0.3-2.5,0.5-4.1c-1.7,0.9-2.7,1.7-3.1,3.2c-1.3,4.2-3.4,8-6.6,11.1
		c-4.3,4.2-9.5,5.8-15.5,5.4c-0.8,0-1.6-0.1-2.7-0.2c0,0.7,0,1.3,0,1.9c0,17.1,0,34.2,0,51.3c0,0.8,0,1.6-0.1,2.4
		c-0.3,2.5-2.5,4.2-5,4.2c-2.6-0.1-4.6-2-4.8-4.6c0-0.5,0-1.1,0-1.6c0-10.9,0-21.8,0-32.8c0-1.1-0.1-2-1.7-1.4
		c0,0.6-0.1,1.2-0.1,1.8c0,11.1,0,22.3,0,33.4c0,2.9-1.8,4.9-4.5,5.2c-2.8,0.3-5.1-1.8-5.4-4.6c0-0.5,0-1.1,0-1.6
		c0-18.6,0-37.1,0-55.7C37.8,88.5,37.8,88.1,37.7,87.8z M83.5,74.1C76,79.3,68,82.2,59.3,83.4c0,2,0.1,3.8,0,5.6
		c-0.1,1.2,0.3,1.7,1.5,1.8C71.2,91.9,79.9,86.2,83.5,74.1z M89.6,82.6c-0.6-0.5-0.9-0.9-1.2-0.9c-0.3,0-0.7,0.5-0.9,0.8
		c-0.1,0.2,0.4,0.7,0.7,0.8C88.6,83.3,89,83,89.6,82.6z"/>
	<path class="st3" d="M125.4,103.1c-4.1,0.7-8.2,1.5-12.3,2c-3.9,0.5-7.8,0.1-11.6-0.9c-0.7-0.2-1.3-0.8-1.8-1.4
		c8.8,2.3,17.2,1.3,25.8-1.5c-2.4-1.4,0.7-2.3-0.1-3.6c2.1,0,4.1,0,6.1,0c0,0.3,0.2,0.7,0.1,1c-0.4,1.9,0.6,2.7,2.3,3.3
		c7.1,2.6,14.2,2.6,21.5,0.9c1.7-0.4,3.3-0.9,5.3-1.4c-1.2-0.9-1.9-1.6-0.4-2.4c0.3-0.2,0.2-0.9,0.3-1.4c1.9,0,3.8,0,6,0
		c-0.9,3.1,1.5,3.5,3.4,4.3c0.5,0.2,1.1,0.3,1.6,0.6c0.3,0.2,0.6,0.6,0.8,0.9c-0.4,0.1-0.9,0.4-1.3,0.3c-1.4-0.5-2.8-1.1-4.7-1.8
		c1.5,1.2,1.1,2,0,2.7c1.2,0.9,1.7,1.7,0.3,2.7c-0.1,0.1-0.1,0.5-0.1,0.8c0,6.4,0,12.8,0,19.2c0.8,0.3,2.1,0.3,1.2,1.9
		c-2.7,0-5.4,0-8.1-0.1c-0.3,0-0.7-0.7-1.2-1.3c0.9-0.2,1.3-0.3,1.8-0.4c0.1-0.1,0.2-0.3,0.2-0.4c0-6.8,0-13.6,0-20.4
		c0-0.3,0-0.6-0.1-0.8c-1-0.9-0.6-1.7,0.1-2.7c-9.3,2.5-18.5,3.4-27.6-0.2c-0.4,0.6-0.8,1.2-1.3,1.8c0.6,0.8,1.8,1.6,0.1,2.5
		c-0.1,0.1-0.1,0.5-0.1,0.8c0,6.4,0,12.9,0,19.3c0.3,0.1,0.6,0.1,0.8,0.2c0.3,0.2,0.6,0.6,0.6,0.8c0,0.3-0.5,0.7-0.7,0.7
		c-2.5,0.1-5.1,0.1-7.6,0c-0.3,0-0.5-0.5-0.8-0.8c0.4-0.4,0.8-0.7,1.2-1.1c0.1,0.1,0.2,0.1,0.3,0.2c0-0.5,0.1-1,0.1-1.5
		c0-6.3,0-12.6,0-18.8c0-0.6-0.4-1.3-0.5-1.9C125,104.5,125.2,103.7,125.4,103.1z"/>
	<path class="st3" d="M171.4,86.6c-0.5,0.4-0.6,0.7-0.8,0.7c-24.9,0-49.9,0-74.8,0c-0.2,0-0.3-0.3-0.5-0.5c0.2-0.2,0.4-0.3,0.5-0.3
		c2,0.4,2.7-0.9,3.5-2.4c1.5-2.7,3.2-5.3,4.9-7.9c0.5-0.7,1.1-1.2,1.8-1.8c3-2.4,6.4-1.7,8.2,1.7c0.6,1.1,1,2.3,1.5,3.5
		c0.7,1.4,1.5,2.7,3.5,3.3c-0.6-3.7,0.5-6.5,4.2-7.6c2.6-0.7,4.7,0.4,6.9,3.4c0.7-0.1,1.5-0.3,2.3-0.4c3.1-0.4,5.7,0.7,7.8,2.9
		c0.7,0.7,1.3,1.4,1.9,2.1c2,2.1,4.3,3.4,7.4,3.3c6.6-0.2,13.2-0.1,19.8,0C170,86.5,170.5,86.6,171.4,86.6z M120.2,80.9
		c0,2,0.4,2.3,2.3,2.1c2.3-0.3,4-1.6,5.7-2.9c0.8-0.6,0.8-1.1,0.3-1.8c-1.2-1.7-3.2-2.4-5.1-1.8C121.4,77.2,120.2,78.8,120.2,80.9z"
		/>
	<path class="st3" d="M61.9,131.3c4.8,0,9.5,0,14.1,0c3.1,0,3.1,0,2.9,3.1c-0.4,5-0.7,10.1-1,15.1c-0.1,1.2-0.5,1.6-1.7,1.6
		c-3.9-0.1-7.8,0-11.7,0c-0.8,0-1.4,0-1.5-1.1c-0.4-6-0.8-12-1.2-17.9C61.8,131.8,61.9,131.7,61.9,131.3z"/>
	<path class="st3" d="M57.5,65.9c0,5-3.9,9-8.9,9c-4.9,0-8.9-4-9-9c0-4.9,4-9,8.9-9C53.5,57,57.5,61,57.5,65.9z"/>
	<path class="st3" d="M31.4,83c0-1.1,0-2.1,0-3.2c-0.2,0-0.4,0-0.5,0c0,2,0,4,0,5.9c-0.2,0-0.4,0-0.6,0c0-1.4-0.1-2.8,0-4.2
		c0.1-1.1,0-1.9-1.2-2.3c0.4-0.7,1.1-1.4,1.1-2.1c0.1-7.3,0.1-14.7,0-22c0-0.5-0.5-0.9-0.7-1.4c-0.1-0.3-0.2-0.7-0.1-1
		c0.2-0.5,0.6-0.9,0.8-1.3c0.4-0.8,0.8-1.7,1.2-2.5c0,0,1,0.2,1,0.4c0.5,2.2,1,4.4,1.2,6.7c0.6,7.1,1.1,14.2,1.6,21.3
		c0,0.3-0.1,0.7-0.4,1.1c-0.6-8.4-1.3-16.8-1.9-25.3c-0.2,0-0.3,0-0.5,0c0,0.7,0,1.3,0,2c0,8.4,0,16.9,0,25.3c0,0.9-0.4,1.8-0.6,2.7
		C31.8,83.1,31.6,83.1,31.4,83z M31.3,54c-0.1,0-0.2,0-0.3,0c0,8.1,0,16.2,0,24.2c0.1,0,0.2,0,0.3,0C31.3,70.2,31.3,62.1,31.3,54z"
		/>
	<path class="st3" d="M108.8,123.8c-4.5,0-9.1,0-13.6,0c-0.4,0-0.9-0.3-1.3-0.5c0.4-0.2,0.9-0.7,1.3-0.7c9,0,18,0,27.1,0
		c0.4,0,0.9,0.3,1.3,0.5c-0.4,0.2-0.9,0.6-1.3,0.6C117.7,123.8,113.3,123.8,108.8,123.8z"/>
	<path class="st3" d="M145.9,123.8c-3.6,0-7.2,0-10.8,0c-0.4,0-0.9-0.4-1.3-0.6c0.4-0.2,0.9-0.5,1.3-0.5c7.3,0,14.6,0,21.8,0
		c0.4,0,0.8,0.4,1.1,0.6c-0.4,0.2-0.8,0.5-1.1,0.5C153.3,123.8,149.6,123.8,145.9,123.8z"/>
	<path class="st3" d="M139.3,69.7c-2.7-1.2-5.2-2.2-8-0.7c0.4-2.1,1.8-3.2,3.8-2.6c2.6,0.8,4.4,0.3,6.3-1.6c1.4-1.4,3.1-1.1,4.6,0.4
		C142.7,65.3,140.9,67.3,139.3,69.7z"/>
	<path class="st3" d="M149,58c0.5-2.1,1.5-3.1,3.7-2.6c2.7,0.7,4.6,0.2,6.6-1.8c1.3-1.3,2.8-1,4.5,0.5c-3,0.2-4.8,1.8-6.3,4
		c-0.2,0.3-0.9,0.4-1.1,0.3C153.9,57.3,151.5,56.6,149,58z"/>
	<path class="st3" d="M146.4,75.7c0.6-2.3,2.1-3.3,4.3-2.7c2.2,0.6,3.7,0.5,5.4-1.4c1.6-1.8,3.3-1.5,4.9-0.1c-1.2,0.5-2.5,1-3.7,1.7
		s-2.3,1.7-3.7,2.7C151.9,75.1,149.4,74.1,146.4,75.7z"/>
	<path class="st3" d="M83.7,123.8c-1.2,0-2.3,0-3.5,0c-5.8,0-11.5,0-17.3,0c-0.5,0-0.9-0.4-1.4-0.6c0.5-0.2,0.9-0.6,1.4-0.6
		c6.5,0,13,0,19.5,0c0.5,0,1,0.3,1.5,0.5C83.9,123.3,83.8,123.6,83.7,123.8z"/>
	<path class="st3" d="M150,92.9c4.1,0,8.2,0,12.4,0C161.8,93.8,151.4,94,150,92.9z"/>
	<path class="st3" d="M142.4,114.1c3.8,0,7.6,0,11.4,0c0,0.2,0,0.5,0,0.7c-3.8,0-7.6,0-11.4,0C142.4,114.5,142.4,114.3,142.4,114.1z
		"/>
	<path class="st3" d="M110.4,114.5c3.2-0.1,6.4-0.1,9.6,0c0,0.2,0,0.4,0,0.6c-3.2,0-6.4,0-9.6,0
		C110.4,114.9,110.4,114.7,110.4,114.5z"/>
	<path class="st3" d="M139.9,93c-1,0.8-6.5,0.9-8.2,0C134.6,93,137.2,93,139.9,93z"/>
	<path class="st3" d="M113.2,92.9c2.3,0,4.7,0,7.2,0C119.5,93.9,114.4,94,113.2,92.9z"/>
	<path class="st3" d="M66.9,114.7c2.3,0,4.5,0,6.8,0c0,0.2,0,0.3,0,0.5c-2.3,0-4.5,0-6.8,0C66.9,115,66.9,114.8,66.9,114.7z"/>
	<path class="st3" d="M71.3,86.7c-1.5,1-8.7,1.2-9.9,0C64.8,86.7,68,86.7,71.3,86.7z"/>
</g>
<g id="hunting" class="st2">
	<path class="st3" d="M116.8,106.9c0.6,9.3-0.4,17.4-3.7,25.2c-0.4,0.9-0.6,2.1-1.2,2.5c-1.4,0.9-3.3,2.1-4.5,1.7
		c-1.1-0.4-1.7-2.7-2.1-4.3c-0.2-0.8,0.5-1.8,0.9-2.7c3.8-9.2,4.3-18.5,2.2-28.2c-0.9-4.4-1.4-9-1.7-13.5c-0.1-2.2,0.5-4.7,1.5-6.7
		c0.4-0.9,2.5-1.2,3.9-1.2c2.1,0,4.2,0.4,6.3,0.6c0.1-0.4,0.1-0.7,0.2-1.1c-0.8-0.7-1.7-1.3-2.4-2.1c-1.8-2.2-2.8-5-1-7.3
		c1.4-1.8,3.7-3.5,5.9-3.8c3.1-0.4,6.3,0.4,9.5,0.8c0.6,0.1,1.2,0.6,2.1,1.1c-3.4,3.2-7.3,3.4-11.3,4.1c3.5,0.3,7,1.4,10.4,0.9
		c10.6-1.7,21.2-3.9,31.7-5.9c0.8-0.2,1.7-0.2,2.6-0.2c0.1,0.3,0.2,0.7,0.3,1c-0.8,0.3-1.7,0.8-2.6,0.9c-4.2,0.8-8.5,1.5-12.7,2.5
		c-1.3,0.3-2.5,1.4-3.5,2.7c-2.9,0.4-4.5,1.9-5.8,4.6c-1.5,3-3.7,5.6-5.9,8.1c-0.8,0.9-2.4,1.1-3.7,1.3c-1,0.1-2.1-0.3-3.2-0.4
		c-5-0.5-6.5,0.4-7.2,5.5c-0.6,4.1-0.3,7.7,3.1,11.1c6,5.9,6.7,13.8,5.9,21.7c-0.2,2.4-0.8,4.7-1.3,7c-0.6,2.5-2,4.3-4.9,3.5
		c-2.4-0.7-2.7-2.6-2.4-5.2c0.6-5,1-10.2,0.7-15.3C122.9,112.6,120.9,109.4,116.8,106.9z M127.4,82.8c4.5,1.5,7.7-0.1,9.1-4.8
		c-3.6-0.5-7.3-1-11.4-1.6c1.6,1,3.5,1.5,3.6,2.3C128.8,80.1,127.9,81.5,127.4,82.8z"/>
	<path class="st3" d="M50,75.1c0.4,0.5,0.8,0.9,1.4,1.7c-4.4,0.2-8.6,1.6-12.5-3.3c0.7,4.2,2.4,5.4,6.1,5.5c4.9,0.1,9.8,0.2,14.8,0
		c4.4-0.2,7.1,1.9,8.7,5.6c3.2,7,2.5,14.5,2.2,22c0,0.7-1.6,2-2,1.8c-0.9-0.3-2.1-1.4-2.1-2.2c-0.3-3.2,0-6.5-0.2-9.7
		c-0.2-2.9-0.8-5.8-1.2-8.6c-0.4,0-0.7,0.1-1.1,0.1c0,13.7,0,27.3,0,41.3c-2.6,0.4-4.8,0.7-7.6,1.1c0-8.7,0-16.9,0-25.2
		c-0.4,0-0.7,0-1.1-0.1c-0.1,0.8-0.4,1.6-0.4,2.4c0,5.2,0,10.3,0,15.5c-0.1,3.4,0.7,6.9-1.7,10c-0.5,0.6-0.1,2-0.1,3.1
		c-4,1.5-5.5,0.4-5.5-4.2c0-14.5,0-29,0-43.5c0-1.3,0-2.6,0-3.8c-12.9-4-12.9-4-13.9-10.8c-1.7-0.4-3.4-0.8-5.3-1.3
		c0.3-1.9,0.6-3.6,0.9-5.9c3.7,1.9,7.2,3.6,10.7,5.4c2.5,1.4,5,2.2,7.8,0.2c0.6,0.7,1.2,1.4,1.9,2.1C49.7,74.4,49.8,74.8,50,75.1z"
		/>
	<path class="st3" d="M83.9,135c-0.4-3.3-0.7-6.5-1.1-10.3c-1.6,1.1-3,1.9-4.5,3c-0.6-0.6-1.3-1.3-1.6-1.5c-0.7,2.1-1.4,4.2-2.2,6.5
		c0.9,0.3,2.4,0.7,3.9,1.1c0,0.4,0,0.9,0,1.3c-3.4,0.1-7.2,1.1-10.1-0.1c-3.1-1.3-5.6-0.3-8.4-0.2c-1.3,0-2.6,0-4,0c0-0.5,0-1,0-1.5
		c2.3-0.3,4.5-0.7,6.8-1s3.8-1.2,4.5-3.8c1.6-6,5.9-10,10.7-13.5c2.8-2,8,0.6,8.1,4c0.2,4.4,0.3,8.9,0.3,13.3c0,1-0.8,2-1.2,3.1
		C84.8,135.3,84.4,135.1,83.9,135z"/>
	<path class="st3" d="M146.8,126.8c-1.4,3.5-2.7,6.7-4,9.9c-0.5-0.1-1-0.2-1.4-0.3c-1.9-4.9-0.6-9.9,0.6-15.2
		c-2.1-2.1-5.6-3.3-6.3-6.7c0.3-0.3,0.6-0.6,0.9-0.9c0.9,0.8,1.7,1.7,2.6,2.5c2.3,2,4.4,3.3,7.9,2.8c3.8-0.5,8.1,0.4,11.8,1.7
		c2.5,0.9,4.7,3.2,5,6.5c0.2,2.4,1,4.7,1.3,7.1c0.1,0.7-0.4,1.6-0.7,2.3c-0.6-0.4-1.5-0.7-1.8-1.3c-0.9-1.7-1.7-3.4-2.5-5.1
		C155.6,130.6,155.6,130.6,146.8,126.8z"/>
	<path class="st3" d="M50,75.1c-0.1-0.3-0.3-0.7-0.4-1c-0.1-2.1-0.7-4.4-0.2-6.3c0.9-3,3.5-4.9,6.6-4.4c3.8,0.6,7.5,2.2,12,3.6
		c-4,3.3-7.9,2-11.8,2.7c1.9,0.6,3.8,1.2,5.9,1.9c-0.3,1.1-0.6,2.2-0.9,3.3c-0.4,0.4-0.9,0.8-1.3,1.1C56.5,77.5,53.2,76.8,50,75.1z"
		/>
	<path class="st3" d="M83.5,101.8c0,3.6,2.2,4.4,5.2,4.6c1.1,0.1,2.1,0.9,3.2,1.4c-0.8,0.9-1.6,1.9-2.5,2.8c-0.7,0.6-1.8,1-2.1,1.7
		c-1.3,3.2-3.8,2.4-5.6,1.2c-1-0.7-1.7-3-1.5-4.4c0.4-2.5,1.6-4.9,2.5-7.4C83,101.7,83.3,101.8,83.5,101.8z"/>
	<path class="st3" d="M164.9,109.3c-0.7,3.5,0.9,5.1,4.1,5.8c1,0.2,1.8,1.4,2.7,2.2c-0.9,0.7-1.8,1.4-2.7,2c-1.5,0.9-3,1.6-4.8,2.6
		c-5.7-2-5.9-3-2.3-8.5c0.9-1.3,1.5-2.8,2.3-4.2C164.3,109.2,164.6,109.3,164.9,109.3z"/>
	<path class="st3" d="M60,76c0.4-0.4,0.9-0.8,1.3-1.1c6.5,0.2,13,0.5,19.5,0.7c0,0.3,0.1,0.6,0.1,0.8c-0.5,0.2-0.9,0.5-1.4,0.5
		c-6,0-11.9,0.1-17.9,0C61,77,60.5,76.4,60,76z"/>
</g>
</svg>
