<?xml version="1.0" encoding="utf-8"?>
<!-- Generator: Adobe Illustrator 21.0.2, SVG Export Plug-In . SVG Version: 6.00 Build 0)  -->
<svg version="1.1" id="Layer_1" xmlns="http://www.w3.org/2000/svg" xmlns:xlink="http://www.w3.org/1999/xlink" x="0px" y="0px"
	 viewBox="0 0 200 200" style="enable-background:new 0 0 200 200;" xml:space="preserve">
<style type="text/css">
	.st0{display:none;fill:#3A3232;}
	.st1{display:none;}
	.st2{display:inline;fill:#FFFFFF;}
	.st3{fill:#FFFFFF;}
</style>
<rect class="st0" width="200" height="200"/>
<g id="outdoor" class="st1">
	<path class="st2" d="M33.9,152.6c-0.8-0.6-1.7-1-2.2-1.7c-0.7-1-1.4-2.3-1.4-3.5c-0.1-17-0.1-34,0-50.9c0-0.5,0.1-1,0.3-1.3
		c2.8-4.2,3.9-8.9,4.8-13.7c0.6-3.2,1-6.4,1.5-9.8c3.2,0,6.4,0,9.6,0.1c0.3,0,0.8,0.8,0.9,1.3c0.7,4,1.2,8.1,2,12
		c0.8,3.6,1.9,7,4,10.1c0.3,0.4,0.4,1,0.4,1.5c0,16.8,0,33.6,0,50.4c0,2.4-1,4.2-3.3,5.3c-0.2,0.1-0.3,0.3-0.4,0.4
		c-1.2,0-2.3,0-3.5,0c-3.2-1.6-3.8-4.3-3.8-7.6c0.1-11.7,0-23.3,0-35c0-0.4,0.1-0.8,0-1.1c-0.1-0.3-0.6-0.6-0.9-0.6
		c-0.3,0-0.8,0.3-0.9,0.6c-0.2,0.4-0.1,0.8-0.1,1.3c0,12.3,0,24.6,0,37c0,2.3-1,3.9-3,5c-0.2,0.1-0.4,0.3-0.6,0.5
		C36.2,152.6,35.1,152.6,33.9,152.6z"/>
	<path class="st2" d="M161.4,110.3c0.8-0.1,1.6-0.2,2.3-0.1c0.2,0.1,0.3,1,0.4,1.5c0.2,1.4,0.4,2.8,0.6,4.2c0,0.2,0,0.4,0,0.6
		c-0.3,1.1-0.6,2.2-0.8,3.2c1.8,0,3.3-0.1,4.8,0c1.4,0.1,2.9,0.7,4.2,0.3c1.5-0.4,2.5,0.2,3.7,0.6c0.4,0.1,0.6,0.7,1,1.1
		c-0.4,0.3-0.7,0.6-1.1,0.7c-0.2,0.1-0.6,0-0.9,0c-39.1,0-78.3,0-117.4,0c-2,0-2,0-1.8-2.2c1.3,0.2,2.5-1,3.9,0
		c0.2,0.1,0.5-0.1,0.8-0.1c1.5-0.1,3.1-0.3,4.6-0.3c0.5,0,1,0.4,1.7,0.6c-0.1-1.5,0.6-2.8-0.5-3.9c-0.1-0.1-0.2-0.3-0.1-0.4
		c0.7-1.8,0.6-3.7,0.8-5.6c0.1-0.8,1.7-0.7,2.5,0.2c2.5-2.5,4.9-4.9,7.4-7.4c11.8-11.9,23.5-23.7,35.3-35.6c0.2-0.2,0.5-0.4,0.6-0.6
		c0.8-1.9,2.4-1.2,3.8-1.3c0.2,0,0.5,0.2,0.6,0.3c2.3,2.4,4.5,4.9,6.9,7.3c9.4,9.5,18.9,19.1,28.4,28.6
		C155.7,104.9,158.7,107.6,161.4,110.3z M111.8,70.6c-0.1-0.1-0.3-0.2-0.4-0.3c-1,1.1-2,2.2-3,3.2c-12.6,12.7-25.1,25.3-37.7,38
		c-0.7,0.7-1.4,1.2-0.3,2.2c0.2,0.1,0.2,0.7,0.1,0.8c-1.7,1.5,0.5,3.4-0.8,4.9c1.6,0.3,2.9,0.5,3.9,0.7c1.1-0.1,2.1-0.6,2.7-0.3
		c1.2,0.6,1.7,0,2.3-0.7c1.1-1.3,2.1-2.6,3.2-3.9c9.6-12,18.7-24.3,26.4-37.7C109.3,75.4,110.5,73,111.8,70.6z M161.5,119.9
		c0.1-1.4,0.2-2.7,0.2-4.1c0-0.3-0.4-0.6-0.5-1s-0.2-1,0-1.2c0.9-0.8,0.4-1.4-0.2-2c-4.5-4.5-9.1-9.1-13.6-13.6
		c-9-9.1-18.1-18.2-27.1-27.4c-0.1-0.1-0.3-0.1-0.5-0.2c0,0.2,0,0.3,0.1,0.4c0.8,1.5,1.5,3.1,2.4,4.6c8.7,15.6,19.4,29.9,30.7,43.7
		c0.3,0.3,0.7,0.6,1.1,0.8c0.9,0.4,1.7-0.1,1.7-1.1c0-0.5,0-1.1,0-1.6c0-2.9,0-5.8,0-8.7c0.1-0.1,0.3-0.2,0.4-0.2c0.9,1,1.8,2,2.8,3
		c0.7,0.8,1.7,1.4,0.9,2.7c-0.2,0.3,0.2,0.8,0.2,1.2c0.1,0.7,0.3,1.3,0.1,2C159.9,118.3,160.4,119.4,161.5,119.9z M115.7,90.4
		c-1.5,10-3.8,19.8-7.5,29.1c1.3,0.2,2.4,0.3,3.6,0.5c0.6,0,1.7-0.4,2.1-0.1c1.2,1.1,2.1,0,3.2-0.1c0.4,0,0.8-0.3,1.2-0.2
		c1.6,0.2,3.3,0.4,5.2,0.7C119.5,110.4,117.2,100.5,115.7,90.4z"/>
	<path class="st2" d="M165.5,94.2c-0.2,0.4-0.3,0.7-0.6,1.3c-0.3-0.6-0.5-0.9-0.6-1.1c-0.8,0.3-1.5,0.6-2.3,0.9
		c-0.2-0.4-0.4-0.7-0.5-1c-0.1,0-0.3,0-0.4,0c-0.2,0.8-0.6,1.7-0.6,2.5c-0.1,3.3,0,6.5,0,9.8c0,0.5,0,0.9-0.1,1.7
		c-1.7-1.7-3.2-3.1-4.6-4.6c-0.2-0.2-0.2-0.8-0.2-1.2c0-2.2,0-4.4,0-6.6c-0.5-0.3-1-0.6-1.4-0.8c-1.1,0.1-2,0.3-3.1,0.4
		c-0.1-0.4-0.2-0.7-0.2-0.7c-1-0.2-1.8-0.5-2.4-0.3c-1.3,0.4-2.2-0.2-3-1c-0.7-0.7-1.4-1.4-2.1-2.1c-1.7-1.7-1.7-1.7-0.7-4.1
		c0.8,0.1,1.7,0.2,1.2-1.2c-0.2-0.7,1.2-1.7,2.3-1.8c0.2-0.6,0.3-1.1,0.5-1.7c-0.9-1.4-2.2-1.4-4.7,0.1c-0.2-0.3-0.3-0.5-0.3-0.5
		c-1.1,0.1-1.9,0.2-2.7,0.3c-0.1-0.1-0.2-0.3-0.3-0.4c0.7-0.6,1.3-1.5,2-1.6c1.4-0.1,1.1-0.8,0.9-1.6c1-0.4,1.9-0.8,1.7-2.2
		c0-0.3,0.2-0.7,0.4-0.9c0.8-0.8,1.7-1.5,2.6-2.3c0.5-0.5,0.9-1,1.4-1.6c-0.1-0.1-0.2-0.2-0.3-0.4c0.3,0,0.6-0.1,0.9-0.1
		c-0.1-0.1-0.1-0.2-0.2-0.3c0.6-0.6,1.2-1.2,2-2c-1.8,0-3.3,0-5,0c-0.1-0.2-0.2-1.3-1.3-0.2c0-0.2-0.1-0.4-0.1-0.6
		c0.7-0.5,1.5-0.9,2.2-1.4c0.1-0.1,0.3-0.1,0.4-0.2c0.4-1,0.9-2.1,1.3-3.1c-0.1-0.1-0.2-0.2-0.3-0.3c0.4-0.1,0.8-0.1,1.2-0.2
		c0.3-0.1,0.7-0.4,1-0.6c0.7-0.8,1.4-1.6,2.2-2.5l0.1-0.1c-0.5-1.7,1.5-2,1.9-3.2c0.5-1.5,2-2.8,2.7-2.8c0.5-1.1,1-2,1.4-2.9
		c0.2,0,0.3,0.1,0.5,0.1c0.1,0.6,0.2,1.2,0.3,1.6c1.1,0.7,2.2,1.4,3.3,2.1c-0.1,0.4-0.3,0.8-0.4,1.2c0.9,0.7,2.3,1.2,2.4,2
		c0.2,1.4,2,1.6,2,3.1c0,0.4,1.2,0.7,2,1.2c0.2,0.6,0.5,1.6,0.8,2.5c1.6-0.1,1.6,0,2.1,2.7c0.3,0,0.6-0.1,1-0.2c0,0.7,0,1.3,0,2.1
		c-0.5-0.4-0.9-0.7-1.4-1.1c-0.2,0.3-0.5,0.6-0.7,0.8c-0.9-0.2-1.7-0.3-2.7-0.5c0.2,0.9,0.5,1.8,0.7,2.8c0.4-0.1,0.8-0.2,1.3-0.3
		c0.3,0.8,0.1,2.1,1.6,2.2c-0.1,0.3-0.1,0.6-0.2,0.8c0.5,0.1,0.9,0.2,1.3,0.4c0.8,0.4,0.5,1.7,1.4,2.1c0.2,0.1,0.3,0.4,0.4,0.7
		c0.2,0.3,0.5,0.6,0.5,0.9c-0.3,1.3,0.4,1.3,1.4,1.6c0.8,0.2,1.8,0.9,2,2.4c-2-0.9-3.7-0.4-5.4,0c-0.4,0.1-1-0.5-1.9-0.9
		c-0.3,0.1-1,0.3-0.3,1.4c0.4,0.6,0.5,1.4,0.7,2c2.1,0.9,3.6,2.4,4.3,4.6c0.4,1.2,1.2,2.2,2.5,2.7c0.5,0.2,0.8,0.9,1,1.5
		c0.5,0.4,1,0.7,1.4,1.1c-0.1,0.2-0.2,0.4-0.2,0.6c-1.1-0.2-2.1-0.4-3.4-0.6c-0.1,0.1-0.5,0.5-1,0.9c-0.7-0.8-1.4-1.8-2.1,0.1
		c-0.3-0.6-0.5-0.9-0.7-1.3c-0.3,0.2-0.5,0.5-0.8,0.7c-0.9-1.4-2-0.3-3-0.4C167.6,94.6,166.4,95.5,165.5,94.2z"/>
	<path class="st2" d="M40.9,57.5c3.2,2.4,6.9,2.9,10.6,3.4c0.1,3.5-3.4,8-8.5,8.5c-4.7,0.5-8.9-2.4-10.3-6.8
		c-1.4-4.5,0.4-9.3,4.5-11.6c3.2-1.8,7.6-1.5,10.6,0.7c0.7,0.5,1.6,0.7,2.4,0.9c2.2,0.5,4.5,0.8,6.7,1.4c0.7,0.2,1.7,1.2,1.6,1.7
		c-0.1,0.7-0.9,1.6-1.6,1.9c-3.3,1.4-6.8,1.7-10.3,1.2C44.8,58.4,42.9,57.9,40.9,57.5z"/>
	<path class="st2" d="M53.7,83.5c0,2.1,0,4.2,0,6.2c-0.1,0-0.2,0-0.4,0c-2.1-5.7-3.2-11.7-3.6-18c3.1-0.1,5.5,1.1,7.4,3.2
		c2.9,3.1,4.2,7,5.1,11.1c1.7,7.7,1.6,15.5,1.2,23.3c-0.1,2.6-1.4,3.9-3.4,4c-2.3,0.1-3.7-1.5-3.7-3.8c0-5.5,0.1-11-0.2-16.5
		c-0.1-2.7-1-5.4-1.5-8.2c-0.1-0.4-0.3-0.9-0.5-1.3C53.9,83.5,53.8,83.5,53.7,83.5z"/>
	<path class="st2" d="M34.2,71.7C33.8,78,32.6,84,30.3,89.8c0-2.2,0-4.4,0-6.6c-0.2,0-0.3-0.1-0.5-0.1c-0.2,1-0.6,1.9-0.8,2.9
		c-1.7,6.6-1.8,13.3-1.6,20c0,1.3,0.2,2.6,0.2,3.9c0,1.9-1.4,3.3-3.2,3.4c-2.1,0.1-3.6-1-3.7-3.1c-0.5-9.1-0.7-18.1,1.9-27
		c1-3.4,2.4-6.5,5.1-8.9C29.3,72.6,31.4,71.6,34.2,71.7z"/>
	<path class="st2" d="M45.3,70.5c1.7-1.4,3.9-2.5,5.2-4.3c1.4-1.9,2.8-2.4,4.8-2.2c1.1,0.1,2.2,0,3.3,0c1.6,0.1,2.4,0.8,2.4,2.4
		c0,2.3,0.1,4.6,0,6.9c0,0.6-0.5,1.3-0.9,1.8c-0.2,0.2-1.2,0.1-1.4-0.1c-2.8-3.4-6.4-4.8-10.8-4.5C46.9,70.5,45.9,70.5,45.3,70.5z"
		/>
	<path class="st2" d="M39,70.5c-1.5,0-2.8,0-4.2,0c-3.8-0.2-6.8,1.3-9.2,4.1c-0.3,0.4-1.1,0.9-1.3,0.7c-0.5-0.4-1.2-1-1.3-1.6
		c-0.1-2.7-0.1-5.4,0-8.1c0.1-1.1,1-1.7,2.1-1.7c2,0,4,0,6,0c0.4,0,0.9,0.3,1,0.6c1.5,2.7,3.7,4.5,6.6,5.5
		C38.8,70.1,38.8,70.2,39,70.5z"/>
	<path class="st2" d="M130.3,47.4c-2.5,3.4-2.9,6.7-0.6,10.1c2.3,3.3,5.5,4,9.3,3c-1.3,2.5-5,3.7-8.4,2.9c-3.4-0.8-6-4.1-6.1-7.7
		C124.4,51.7,126.6,48.5,130.3,47.4z"/>
	<path class="st2" d="M24.6,114.9c1.5-1.1,2.8-2.1,4.4-3.3c0,1.6,0,3,0,4.4c0,0.1-0.2,0.3-0.3,0.4C27.2,117.2,25.1,116.2,24.6,114.9
		z"/>
	<path class="st2" d="M55,116.4c0-1.6,0-3.1,0-4.7c1.4,1.1,2.8,2.1,4.2,3.2C58.9,116.4,57.9,116.8,55,116.4z"/>
	<path class="st2" d="M142.2,94.4c-1.3-0.2-2.5-0.3-4.1-0.5c0-0.2,0-0.8-0.1-1.4c0.8,0,1.7-0.2,2.4,0.1
		C141,93,141.5,93.8,142.2,94.4z"/>
</g>
<g id="fishing">
	<path class="st3" d="M24.8,176.7c1.6-0.8,1.6-0.8,2.8,2.3c0-5.2,0-10.4,0-15.6c0.2,0,0.4,0,0.5,0c0,5.2,0,10.4,0,15.6
		c0.2,0,0.4,0,0.5,0c0.1-0.5,0.1-1,0.1-1.6c0-4.2,0-8.3,0-12.5c0-0.5,0.3-0.9,0.5-1.5c0.2,0.1,0.4,0.1,0.6,0.2c0,0.6,0,1.2,0,2
		c0,4.9-0.7,10,0.2,14.7c1.1,5.7,0.2,11.3,0.7,17c0,0.4,0.1,1-0.1,1.2c-0.4,0.5-1,1-1.5,1c-0.5,0-1.3-0.7-1.3-1.1
		c-0.1-5.4-0.1-10.7,0-16.1c0-0.7,0.5-1.5,0.9-2.3c-0.7,0-1.2,0-1.9,0c-0.4,2.9-0.6,3.1-2.4,2.2C24.8,180.4,24.8,178.5,24.8,176.7z"
		/>
	<path class="st3" d="M35.3,134.7c-1.6,3.2-2.2,6.6-2.3,10.1c-0.2,4.7-0.1,9.4-0.1,14.1c0,2.3-1.1,3.8-3,3.9c-2.1,0.1-3.4-1-3.5-3.3
		c-0.5-8.8-0.7-17.6,2.2-26.2c0.6-1.9,1.6-3.6,2.6-5.3c2.1-3.1,5-4.7,8.9-4.6c4.2,0.1,8.2,0,12.4,0c11.5,0.1,21.4-4,30.1-11.1
		c0.6-0.5,1.1-1,1.8-1.5c1.3-0.8,3-0.5,4,0.6c1,1,1.5,3.1,0.3,4c-2.3,1.9-1.7,3.9-1.3,6.3c2,0.2,2.4,1.7,2.6,3.3
		c0.2,1.1,0.7,2.3,1,3.4c1.1,4.5,2.5,8.9,3.4,13.5c0.7,3.2,1.1,6.4,3.1,9.3c1.3,1.9,1.8,4.4,2.6,6.4c-1.6,0.2-3,0.2-4.2,0.7
		c-1.7,0.9-2.7,2.6-3,4.5c-0.7,3.7-1.3,7.5-2.1,11.1c-0.3,1.6,0.3,2.6,1.3,3.6c2.5,2.6,3.4,5.8,3.1,9.7c-1.9-2.7-3.8-5-7.1-5
		c-3,0-5.6,1.3-7.5,3.8c-0.1,0-0.3-0.1-0.4-0.1c0.4-1.5,0.6-3,1.2-4.4c0.5-1.3,1.2-2.7,2.3-3.7c1.9-1.8,2.3-3.8,1.9-6.2
		c-0.7-4.3-1.3-8.4-2.1-12.7c-0.1-1-0.6-1.5-1.7-1.3c-1.1,0.1-2.4,0.2-3.7,0.4c0.1-2.2,1.1-3.8,3-5c1.6-0.9,2.1-2.1,1.9-3.7
		c-0.2-1.9-0.1-3.8,0-5.7c0-2-0.5-2.6-2.5-2.6c-0.4,0-0.7,0-1.7,0.1c1.2-1.8,2.3-3.3,3.4-4.8c0.9-1,1.2-2.1,1.2-3.5
		c0-2.5,0.1-5,0.5-7.4c0.2-1.2,1.5-2.3,1.9-3.4c0.4-1.2,0.3-2.6,0.5-4.3c-1.8,0.9-2.8,1.8-3.2,3.3c-1.3,4.4-3.5,8.3-6.9,11.5
		c-4.5,4.4-9.9,6-16.1,5.6c-0.8,0-1.7-0.1-2.8-0.2c0,0.7,0,1.3,0,2c0,17.8,0,35.5,0,53.3c0,0.8,0,1.7-0.1,2.5
		c-0.3,2.6-2.6,4.4-5.2,4.4c-2.7-0.1-4.8-2.1-5-4.8c0-0.5,0-1.1,0-1.7c0-11.3,0-22.6,0-34.1c0-1.1-0.1-2.1-1.8-1.5
		c0,0.6-0.1,1.2-0.1,1.9c0,11.5,0,23.2,0,34.7c0,3-1.9,5.1-4.7,5.4c-2.9,0.3-5.3-1.9-5.6-4.8c0-0.5,0-1.1,0-1.7
		c0-19.3,0-38.5,0-57.8C35.4,135.4,35.4,135,35.3,134.7z M82.9,120.5c-7.8,5.4-16.1,8.4-25.1,9.7c0,2.1,0.1,3.9,0,5.8
		c-0.1,1.2,0.3,1.8,1.6,1.9C70.1,139,79.1,133.1,82.9,120.5z M89.2,129.3c-0.6-0.5-0.9-0.9-1.2-0.9c-0.3,0-0.7,0.5-0.9,0.8
		c-0.1,0.2,0.4,0.7,0.7,0.8C88.2,130,88.6,129.7,89.2,129.3z"/>
	<path class="st3" d="M126.4,150.6c-4.3,0.7-8.5,1.6-12.8,2.1c-4,0.5-8.1,0.1-12-0.9c-0.7-0.2-1.3-0.8-1.9-1.5
		c9.1,2.4,17.9,1.3,26.8-1.6c-2.5-1.5,0.7-2.4-0.1-3.7c2.2,0,4.3,0,6.3,0c0,0.3,0.2,0.7,0.1,1c-0.4,2,0.6,2.8,2.4,3.4
		c7.4,2.7,14.7,2.7,22.3,0.9c1.8-0.4,3.4-0.9,5.5-1.5c-1.2-0.9-2-1.7-0.4-2.5c0.3-0.2,0.2-0.9,0.3-1.5c2,0,3.9,0,6.2,0
		c-0.9,3.2,1.6,3.6,3.5,4.5c0.5,0.2,1.1,0.3,1.7,0.6c0.3,0.2,0.6,0.6,0.8,0.9c-0.4,0.1-0.9,0.4-1.3,0.3c-1.5-0.5-2.9-1.1-4.9-1.9
		c1.6,1.2,1.1,2.1,0,2.8c1.2,0.9,1.8,1.8,0.3,2.8c-0.1,0.1-0.1,0.5-0.1,0.8c0,6.6,0,13.3,0,19.9c0.8,0.3,2.2,0.3,1.2,2
		c-2.8,0-5.6,0-8.4-0.1c-0.3,0-0.7-0.7-1.2-1.3c0.9-0.2,1.3-0.3,1.9-0.4c0.1-0.1,0.2-0.3,0.2-0.4c0-7.1,0-14.1,0-21.2
		c0-0.3,0-0.6-0.1-0.8c-1-0.9-0.6-1.8,0.1-2.8c-9.7,2.6-19.2,3.5-28.7-0.2c-0.4,0.6-0.8,1.2-1.3,1.9c0.6,0.8,1.9,1.7,0.1,2.6
		c-0.1,0.1-0.1,0.5-0.1,0.8c0,6.6,0,13.4,0,20c0.3,0.1,0.6,0.1,0.8,0.2c0.3,0.2,0.6,0.6,0.6,0.8c0,0.3-0.5,0.7-0.7,0.7
		c-2.6,0.1-5.3,0.1-7.9,0c-0.3,0-0.5-0.5-0.8-0.8c0.4-0.4,0.8-0.7,1.2-1.1c0.1,0.1,0.2,0.1,0.3,0.2c0-0.5,0.1-1,0.1-1.6
		c0-6.5,0-13.1,0-19.5c0-0.6-0.4-1.3-0.5-2C126,152.1,126.2,151.2,126.4,150.6z"/>
	<path class="st3" d="M174.1,133.5c-0.5,0.4-0.6,0.7-0.8,0.7c-25.9,0-51.8,0-77.7,0c-0.2,0-0.3-0.3-0.5-0.5c0.2-0.2,0.4-0.3,0.5-0.3
		c2.1,0.4,2.8-0.9,3.6-2.5c1.6-2.8,3.3-5.5,5.1-8.2c0.5-0.7,1.1-1.2,1.9-1.9c3.1-2.5,6.6-1.8,8.5,1.8c0.6,1.1,1,2.4,1.6,3.6
		c0.7,1.5,1.6,2.8,3.6,3.4c-0.6-3.8,0.5-6.7,4.4-7.9c2.7-0.7,4.9,0.4,7.2,3.5c0.7-0.1,1.6-0.3,2.4-0.4c3.2-0.4,5.9,0.7,8.1,3
		c0.7,0.7,1.3,1.5,2,2.2c2.1,2.2,4.5,3.5,7.7,3.4c6.9-0.2,13.7-0.1,20.6,0C172.7,133.4,173.2,133.5,174.1,133.5z M121,127.6
		c0,2.1,0.4,2.4,2.4,2.2c2.4-0.3,4.2-1.7,5.9-3c0.8-0.6,0.8-1.1,0.3-1.9c-1.2-1.8-3.3-2.5-5.3-1.9C122.2,123.7,121,125.4,121,127.6z
		"/>
	<path class="st3" d="M60.4,179.9c5,0,9.9,0,14.6,0c3.2,0,3.2,0,3,3.2c-0.4,5.2-0.7,10.5-1,15.7c-0.1,1.2-0.5,1.7-1.8,1.7
		c-4-0.1-8.1,0-12.1,0c-0.8,0-1.5,0-1.6-1.1c-0.4-6.2-0.8-12.5-1.2-18.6C60.3,180.4,60.4,180.3,60.4,179.9z"/>
	<path class="st3" d="M55.9,112c0,5.2-4,9.3-9.2,9.3c-5.1,0-9.2-4.2-9.3-9.3c0-5.1,4.2-9.3,9.2-9.3C51.7,102.7,55.9,106.9,55.9,112z
		"/>
	<path class="st3" d="M28.8,129.7c0-1.1,0-2.2,0-3.3c-0.2,0-0.4,0-0.5,0c0,2.1,0,4.2,0,6.1c-0.2,0-0.4,0-0.6,0c0-1.5-0.1-2.9,0-4.4
		c0.1-1.1,0-2-1.2-2.4c0.4-0.7,1.1-1.5,1.1-2.2c0.1-7.6,0.1-15.3,0-22.8c0-0.5-0.5-0.9-0.7-1.5c-0.1-0.3-0.2-0.7-0.1-1
		c0.2-0.5,0.6-0.9,0.8-1.3c0.4-0.8,0.8-1.8,1.2-2.6c0,0,1,0.2,1,0.4c0.5,2.3,1,4.6,1.2,7c0.6,7.4,1.1,14.7,1.7,22.1
		c0,0.3-0.1,0.7-0.4,1.1c-0.6-8.7-1.3-17.4-2-26.3c-0.2,0-0.3,0-0.5,0c0,0.7,0,1.3,0,2.1c0,8.7,0,17.5,0,26.3c0,0.9-0.4,1.9-0.6,2.8
		C29.2,129.8,29,129.8,28.8,129.7z M28.7,99.6c-0.1,0-0.2,0-0.3,0c0,8.4,0,16.8,0,25.1c0.1,0,0.2,0,0.3,0
		C28.7,116.4,28.7,108,28.7,99.6z"/>
	<path class="st3" d="M109.1,172.1c-4.7,0-9.4,0-14.1,0c-0.4,0-0.9-0.3-1.3-0.5c0.4-0.2,0.9-0.7,1.3-0.7c9.3,0,18.7,0,28.1,0
		c0.4,0,0.9,0.3,1.3,0.5c-0.4,0.2-0.9,0.6-1.3,0.6C118.4,172.1,113.8,172.1,109.1,172.1z"/>
	<path class="st3" d="M147.7,172.1c-3.7,0-7.5,0-11.2,0c-0.4,0-0.9-0.4-1.3-0.6c0.4-0.2,0.9-0.5,1.3-0.5c7.6,0,15.2,0,22.6,0
		c0.4,0,0.8,0.4,1.1,0.6c-0.4,0.2-0.8,0.5-1.1,0.5C155.3,172.1,151.5,172.1,147.7,172.1z"/>
	<path class="st3" d="M140.8,115.9c-2.8-1.2-5.4-2.3-8.3-0.7c0.4-2.2,1.9-3.3,3.9-2.7c2.7,0.8,4.6,0.3,6.5-1.7
		c1.5-1.5,3.2-1.1,4.8,0.4C144.3,111.4,142.5,113.4,140.8,115.9z"/>
	<path class="st3" d="M150.9,103.8c0.5-2.2,1.6-3.2,3.8-2.7c2.8,0.7,4.8,0.2,6.9-1.9c1.3-1.3,2.9-1,4.7,0.5c-3.1,0.2-5,1.9-6.5,4.2
		c-0.2,0.3-0.9,0.4-1.1,0.3C156,103.1,153.5,102.3,150.9,103.8z"/>
	<path class="st3" d="M148.2,122.2c0.6-2.4,2.2-3.4,4.5-2.8c2.3,0.6,3.8,0.5,5.6-1.5c1.7-1.9,3.4-1.6,5.1-0.1
		c-1.2,0.5-2.6,1-3.8,1.8c-1.2,0.7-2.4,1.8-3.8,2.8C153.9,121.5,151.3,120.5,148.2,122.2z"/>
	<path class="st3" d="M83.1,172.1c-1.2,0-2.4,0-3.6,0c-6,0-11.9,0-18,0c-0.5,0-0.9-0.4-1.5-0.6c0.5-0.2,0.9-0.6,1.5-0.6
		c6.7,0,13.5,0,20.2,0c0.5,0,1,0.3,1.6,0.5C83.3,171.6,83.2,171.9,83.1,172.1z"/>
	<path class="st3" d="M151.9,140c4.3,0,8.5,0,12.9,0C164.2,140.9,153.4,141.2,151.9,140z"/>
	<path class="st3" d="M144,162c3.9,0,7.9,0,11.8,0c0,0.2,0,0.5,0,0.7c-3.9,0-7.9,0-11.8,0C144,162.4,144,162.2,144,162z"/>
	<path class="st3" d="M110.8,162.4c3.3-0.1,6.6-0.1,10,0c0,0.2,0,0.4,0,0.6c-3.3,0-6.6,0-10,0C110.8,162.9,110.8,162.6,110.8,162.4z
		"/>
	<path class="st3" d="M141.4,140.1c-1,0.8-6.7,0.9-8.5,0C135.9,140.1,138.6,140.1,141.4,140.1z"/>
	<path class="st3" d="M113.7,140c2.4,0,4.9,0,7.5,0C120.2,141.1,115,141.2,113.7,140z"/>
	<path class="st3" d="M65.6,162.6c2.4,0,4.7,0,7.1,0c0,0.2,0,0.3,0,0.5c-2.4,0-4.7,0-7.1,0C65.6,163,65.6,162.8,65.6,162.6z"/>
	<path class="st3" d="M70.2,133.6c-1.6,1-9,1.2-10.3,0C63.5,133.6,66.8,133.6,70.2,133.6z"/>
</g>
<g id="hunting" class="st1">
	<path class="st2" d="M116.8,106.9c0.6,9.3-0.4,17.4-3.7,25.2c-0.4,0.9-0.6,2.1-1.2,2.5c-1.4,0.9-3.3,2.1-4.5,1.7
		c-1.1-0.4-1.7-2.7-2.1-4.3c-0.2-0.8,0.5-1.8,0.9-2.7c3.8-9.2,4.3-18.5,2.2-28.2c-0.9-4.4-1.4-9-1.7-13.5c-0.1-2.2,0.5-4.7,1.5-6.7
		c0.4-0.9,2.5-1.2,3.9-1.2c2.1,0,4.2,0.4,6.3,0.6c0.1-0.4,0.1-0.7,0.2-1.1c-0.8-0.7-1.7-1.3-2.4-2.1c-1.8-2.2-2.8-5-1-7.3
		c1.4-1.8,3.7-3.5,5.9-3.8c3.1-0.4,6.3,0.4,9.5,0.8c0.6,0.1,1.2,0.6,2.1,1.1c-3.4,3.2-7.3,3.4-11.3,4.1c3.5,0.3,7,1.4,10.4,0.9
		c10.6-1.7,21.2-3.9,31.7-5.9c0.8-0.2,1.7-0.2,2.6-0.2c0.1,0.3,0.2,0.7,0.3,1c-0.8,0.3-1.7,0.8-2.6,0.9c-4.2,0.8-8.5,1.5-12.7,2.5
		c-1.3,0.3-2.5,1.4-3.5,2.7c-2.9,0.4-4.5,1.9-5.8,4.6c-1.5,3-3.7,5.6-5.9,8.1c-0.8,0.9-2.4,1.1-3.7,1.3c-1,0.1-2.1-0.3-3.2-0.4
		c-5-0.5-6.5,0.4-7.2,5.5c-0.6,4.1-0.3,7.7,3.1,11.1c6,5.9,6.7,13.8,5.9,21.7c-0.2,2.4-0.8,4.7-1.3,7c-0.6,2.5-2,4.3-4.9,3.5
		c-2.4-0.7-2.7-2.6-2.4-5.2c0.6-5,1-10.2,0.7-15.3C122.9,112.6,120.9,109.4,116.8,106.9z M127.4,82.8c4.5,1.5,7.7-0.1,9.1-4.8
		c-3.6-0.5-7.3-1-11.4-1.6c1.6,1,3.5,1.5,3.6,2.3C128.8,80.1,127.9,81.5,127.4,82.8z"/>
	<path class="st2" d="M50,75.1c0.4,0.5,0.8,0.9,1.4,1.7c-4.4,0.2-8.6,1.6-12.5-3.3c0.7,4.2,2.4,5.4,6.1,5.5c4.9,0.1,9.8,0.2,14.8,0
		c4.4-0.2,7.1,1.9,8.7,5.6c3.2,7,2.5,14.5,2.2,22c0,0.7-1.6,2-2,1.8c-0.9-0.3-2.1-1.4-2.1-2.2c-0.3-3.2,0-6.5-0.2-9.7
		c-0.2-2.9-0.8-5.8-1.2-8.6c-0.4,0-0.7,0.1-1.1,0.1c0,13.7,0,27.3,0,41.3c-2.6,0.4-4.8,0.7-7.6,1.1c0-8.7,0-16.9,0-25.2
		c-0.4,0-0.7,0-1.1-0.1c-0.1,0.8-0.4,1.6-0.4,2.4c0,5.2,0,10.3,0,15.5c-0.1,3.4,0.7,6.9-1.7,10c-0.5,0.6-0.1,2-0.1,3.1
		c-4,1.5-5.5,0.4-5.5-4.2c0-14.5,0-29,0-43.5c0-1.3,0-2.6,0-3.8c-12.9-4-12.9-4-13.9-10.8c-1.7-0.4-3.4-0.8-5.3-1.3
		c0.3-1.9,0.6-3.6,0.9-5.9c3.7,1.9,7.2,3.6,10.7,5.4c2.5,1.4,5,2.2,7.8,0.2c0.6,0.7,1.2,1.4,1.9,2.1C49.7,74.4,49.8,74.8,50,75.1z"
		/>
	<path class="st2" d="M83.9,135c-0.4-3.3-0.7-6.5-1.1-10.3c-1.6,1.1-3,1.9-4.5,3c-0.6-0.6-1.3-1.3-1.6-1.5c-0.7,2.1-1.4,4.2-2.2,6.5
		c0.9,0.3,2.4,0.7,3.9,1.1c0,0.4,0,0.9,0,1.3c-3.4,0.1-7.2,1.1-10.1-0.1c-3.1-1.3-5.6-0.3-8.4-0.2c-1.3,0-2.6,0-4,0c0-0.5,0-1,0-1.5
		c2.3-0.3,4.5-0.7,6.8-1s3.8-1.2,4.5-3.8c1.6-6,5.9-10,10.7-13.5c2.8-2,8,0.6,8.1,4c0.2,4.4,0.3,8.9,0.3,13.3c0,1-0.8,2-1.2,3.1
		C84.8,135.3,84.4,135.1,83.9,135z"/>
	<path class="st2" d="M146.8,126.8c-1.4,3.5-2.7,6.7-4,9.9c-0.5-0.1-1-0.2-1.4-0.3c-1.9-4.9-0.6-9.9,0.6-15.2
		c-2.1-2.1-5.6-3.3-6.3-6.7c0.3-0.3,0.6-0.6,0.9-0.9c0.9,0.8,1.7,1.7,2.6,2.5c2.3,2,4.4,3.3,7.9,2.8c3.8-0.5,8.1,0.4,11.8,1.7
		c2.5,0.9,4.7,3.2,5,6.5c0.2,2.4,1,4.7,1.3,7.1c0.1,0.7-0.4,1.6-0.7,2.3c-0.6-0.4-1.5-0.7-1.8-1.3c-0.9-1.7-1.7-3.4-2.5-5.1
		C155.6,130.6,155.6,130.6,146.8,126.8z"/>
	<path class="st2" d="M50,75.1c-0.1-0.3-0.3-0.7-0.4-1c-0.1-2.1-0.7-4.4-0.2-6.3c0.9-3,3.5-4.9,6.6-4.4c3.8,0.6,7.5,2.2,12,3.6
		c-4,3.3-7.9,2-11.8,2.7c1.9,0.6,3.8,1.2,5.9,1.9c-0.3,1.1-0.6,2.2-0.9,3.3c-0.4,0.4-0.9,0.8-1.3,1.1C56.5,77.5,53.2,76.8,50,75.1z"
		/>
	<path class="st2" d="M83.5,101.8c0,3.6,2.2,4.4,5.2,4.6c1.1,0.1,2.1,0.9,3.2,1.4c-0.8,0.9-1.6,1.9-2.5,2.8c-0.7,0.6-1.8,1-2.1,1.7
		c-1.3,3.2-3.8,2.4-5.6,1.2c-1-0.7-1.7-3-1.5-4.4c0.4-2.5,1.6-4.9,2.5-7.4C83,101.7,83.3,101.8,83.5,101.8z"/>
	<path class="st2" d="M164.9,109.3c-0.7,3.5,0.9,5.1,4.1,5.8c1,0.2,1.8,1.4,2.7,2.2c-0.9,0.7-1.8,1.4-2.7,2c-1.5,0.9-3,1.6-4.8,2.6
		c-5.7-2-5.9-3-2.3-8.5c0.9-1.3,1.5-2.8,2.3-4.2C164.3,109.2,164.6,109.3,164.9,109.3z"/>
	<path class="st2" d="M60,76c0.4-0.4,0.9-0.8,1.3-1.1c6.5,0.2,13,0.5,19.5,0.7c0,0.3,0.1,0.6,0.1,0.8c-0.5,0.2-0.9,0.5-1.4,0.5
		c-6,0-11.9,0.1-17.9,0C61,77,60.5,76.4,60,76z"/>
</g>
</svg>
