<?xml version="1.0" encoding="utf-8"?>
<!-- Generator: Adobe Illustrator 19.0.0, SVG Export Plug-In . SVG Version: 6.00 Build 0)  -->
<svg version="1.1" xmlns="http://www.w3.org/2000/svg" xmlns:xlink="http://www.w3.org/1999/xlink" x="0px" y="0px"
	 viewBox="0 0 202.2 68.1" style="enable-background:new 0 0 202.2 68.1;" xml:space="preserve">
<style type="text/css">
	.st0{display:none;}
	.st1{display:inline;fill:#526044;}
	.st2{display:none;fill:#526044;}
	.st3{fill:#526044;}
</style>
<g id="Layer_2" class="st0">
	<polygon id="XMLID_3_" class="st1" points="69.6,27.2 83.1,7.4 96.6,27.2 	"/>
	<polygon id="XMLID_2_" class="st1" points="65.8,39.2 83.1,13.8 100.4,39.2 	"/>
	<polygon id="XMLID_9_" class="st1" points="60,54.4 83.1,20.4 106.2,54.4 	"/>
	<polygon id="XMLID_10_" class="st1" points="55.8,67.1 83.1,27 110.4,67.1 	"/>
	<rect id="XMLID_1_" x="79.4" y="64.8" class="st1" width="7.4" height="10.8"/>
	<rect id="XMLID_4_" x="238.6" y="71" class="st1" width="27.7" height="10"/>
	<polygon id="XMLID_12_" class="st1" points="231.2,71 252.4,49.8 273.6,71 	"/>
	<rect id="XMLID_11_" x="238.9" y="54.6" class="st1" width="5" height="8.8"/>
	<rect id="XMLID_13_" x="238.9" y="41.9" class="st1" width="0.8" height="7.9"/>
	<rect id="XMLID_16_" x="243.2" y="44.7" class="st1" width="0.8" height="4.1"/>
	<rect id="XMLID_18_" x="243.2" y="42.2" class="st1" width="0.8" height="1"/>
	<rect id="XMLID_19_" x="243.2" y="40.3" class="st1" width="0.8" height="1"/>
	<rect id="XMLID_20_" x="238.9" y="39.2" class="st1" width="0.8" height="1"/>
	<rect id="XMLID_17_" x="241.1" y="44" class="st1" width="0.8" height="7.9"/>
	
		<image style="display:inline;overflow:visible;opacity:0.43;" width="345" height="130" id="XMLID_5_" xlink:href="D:\Henriette\Pictures\2017-12-11 20_47_31-Mock-ups.png"  transform="matrix(0.75 0 0 0.75 43.071 -3.5801)">
	</image>
</g>
<g id="Layer_1">
	<polygon id="XMLID_22_" class="st2" points="321.5,59.7 314.4,46.9 318.1,46.9 309.7,31.8 313.4,31.8 306.7,19.8 310.2,19.8 
		299.3,0 288.3,19.8 291.8,19.8 285.1,31.8 288.8,31.8 280.4,46.9 284.1,46.9 277,59.7 296.3,59.7 296.3,68.1 302.2,68.1 
		302.2,59.7 	"/>
	<g id="XMLID_14_">
		<polygon id="XMLID_30_" class="st3" points="180.9,36.9 172.4,45.4 172.4,41.7 167.4,41.7 167.4,50.4 159.7,58.1 167.1,58.1 
			167.1,68.1 194.8,68.1 194.8,58.1 202.2,58.1 		"/>
		<rect id="XMLID_31_" x="167.4" y="29" class="st3" width="0.8" height="7.9"/>
		<rect id="XMLID_32_" x="171.7" y="31.8" class="st3" width="0.8" height="4.1"/>
		<rect id="XMLID_33_" x="171.7" y="29.3" class="st3" width="0.8" height="1"/>
		<rect id="XMLID_34_" x="171.7" y="27.5" class="st3" width="0.8" height="1"/>
		<rect id="XMLID_35_" x="167.4" y="26.3" class="st3" width="0.8" height="1"/>
		<rect id="XMLID_36_" x="169.6" y="31.1" class="st3" width="0.8" height="7.9"/>
	</g>
	<polygon id="XMLID_8_" class="st3" points="80.5,64.5 77.2,59 78.9,59 75,52.5 76.7,52.5 73.6,47.3 75.2,47.3 70.1,38.8 64.9,47.3 
		66.6,47.3 63.5,52.5 65.2,52.5 61.2,59 63,59 59.6,64.5 68.7,64.5 68.7,68.1 71.5,68.1 71.5,64.5 	"/>
	<polygon id="XMLID_15_" class="st3" points="54.6,59.7 46,46.9 50.5,46.9 40.1,31.8 44.6,31.8 36.5,19.8 40.8,19.8 27.3,0 
		13.8,19.8 18.2,19.8 10,31.8 14.5,31.8 4.2,46.9 8.7,46.9 0,59.7 23.6,59.7 23.6,68.1 31,68.1 31,59.7 	"/>
</g>
</svg>
