<svg id="daadyr.svg" xmlns="http://www.w3.org/2000/svg" viewBox="0 0 376.06 422.75"><title>dådyr</title><path d="M713.27,729.1s27.32-50.37,27.27-54.37c0,0-6.15-10.92-6.31-22.92,0,0-4.11-7.95-8.12-8.89S683.19,613,675.54,565.1c0,0-10.08-5.86-37-2.5,0,0-7-.91-9.09-6.88s4.85-11.07,4.85-11.07,30.69-23.42,30.66-25.42-2.11-8-2.11-8l0-3,8-.11s-5.12-8.93-16.24-17.78a162.4,162.4,0,0,1-20.27-19.73s17.13,9.77,18.16,11.76,5.77-17.08,3.69-23.05c0,0,3.12,9,.31,23,0,0-1,3,2.08,6s8.09,6.89,8.09,6.89,4-.05,4.93-5.07a27.54,27.54,0,0,0-4.26-18.94s4.08,5.95,5.07,4.93.81-14-.3-22c0,0,3,2,4.36,26.94,0,0,.08,6,4.93-5.07,0,0,3.07,5-4.82,13.07l2.28,21s5,2.93,7-3.09,4-1.05,1.68-24a23.61,23.61,0,0,1,6.16,11.92s16.9-7.23,23.78-16.32a35.36,35.36,0,0,1,6-1.08c2,0,8.82-13.12-2.31-23,0,0-19.12-8.74-33.15-10.55,0,0,23-1.31,31,2.58s-3.28-21-3.28-21,8.05,3.89,9.3,21.88c0,0,.05,4,1.07,5s1,0,2-1-1.11-8-3.19-14-2.19-14-2.19-14,13.3,21.82,9.58,42.87a67.12,67.12,0,0,1-4.78,16.07s3.22,16-1.7,22-7.85,11.11-14.78,16.2c0,0,26.59,43.64,28.65,47.62s63.21,15.15,96.14,9.7,61.72-20.84,87.88-9.19,37.21,15.5,48.23,16.35,27.43,31.63,14,76.82c0,0-8.05-3.89-7.65-47.9,0,0-14.4,44.2-9.2,59.13s32.55,40.56,32.55,40.56,6.07,4.92,2.22,16-2.23,57-2.23,57,1.43,32-3.44,41.05l-6,.08-1.84,12s-.92,6-4.92,6.07-16,1.22-17-1.77c0,0,21.81-14.3,19.24-56.27S981,742,981,742s-31.31,51.43-37.09,67.51c0,0-3.89,8.05-9.9,7.13,0,0-1.81,14-5.8,15.08s-17,.23-17,.23-1.05-4,1.93-5,13.81-14.19,13.81-14.19l-.09-7s18.71-21.26,21.59-30.29,16.48-38.23,4.31-51.06-33.62-45.55-34.65-47.54-3.08-6-17-1.77-93.92,6.27-93.92,6.27-6.67,24.09-2,77-.26,55-.26,55l-4,.05.19,14s-2.89,8-19.94,4.27c0,0,15.92-6.22,13.5-37.19s-10.2-88.87-21.35-99.72c0,0-15,3.2-42.5,37.58,0,0,11.63,46.85,20.81,59.72l-1.93,5s7.07,4.9,8.16,11.89,2.14,10,.22,16c0,0-6-.92-15.3-21.8,0,0-6.09-6.92-7.09-6.9s1.78-16-3.3-22S710.8,731.63,713.27,729.1Z" transform="translate(-629.02 -423.45)"/></svg>
