<svg id="fox2.svg" data-name="Layer 5" xmlns="http://www.w3.org/2000/svg" viewBox="0 0 640.39 366.11"><defs><style>.cls-1{fill:none;stroke:#000;stroke-miterlimit:10;}</style></defs><title>fox2</title><path class="cls-1" d="M70,467s35-23,39-44c0,0,2.5-9.5,31.5-39.5,0,0,0-16,13-26,0,0,11,7,12,24,0,0,12,9,16,13l2-2,2,4h5v4l5-1v4l5,1-2,4h5v4s10,4,16,3l-4,2s19,10,26,9a42,42,0,0,1-5,2c-3,1,9,4,13,4a18.66,18.66,0,0,1-4,3c-2,1,18,8,25,5,0,0-5,5-6,5s14,10,27,3,47-5,47-5,150-3,175,23,40,45,40,51,96,88,113,93,47,29,42,48-37,36-44,35-30,7-68-20-86-115-87-117-16,23-15,29-10,16-10,16a43.19,43.19,0,0,0,14,41s3,24-27,75c0,0-21,11-39,0,0,0-3-3,1-3a22.45,22.45,0,0,1-17-4s-2,0-6-2,4-12,11-12h10l18-34s3-4-3-23c0,0-13-22-18-24s-21-50-21-50-71,14-119,12c0,0,7,96,13,99,0,0-2,34-5,35s-24,5-27,2l-3-3s1,12-5,12-28-1-28-1-9-5-7-7,9-10,21-10a10.8,10.8,0,0,0,4-8c0-5,3-108-17-126s-77-78-81-78c0,0,2-16-10-18s-46,9-46,9-6,1-10-1-15-11-15-11S68.5,467.5,70,467Z" transform="translate(-69.16 -356.89)"/><path class="cls-1" d="M268.5,700.5s12-2,14-3,1-20,0-20-9-25-8-40C274.5,637.5,270.5,699.5,268.5,700.5Z" transform="translate(-69.16 -356.89)"/><path class="cls-1" d="M447.5,704.5s19-33,22-35-8,29-15,34C454.5,703.5,450.5,705.5,447.5,704.5Z" transform="translate(-69.16 -356.89)"/></svg>
