<svg id="hjort1.svg" xmlns="http://www.w3.org/2000/svg" viewBox="0 0 437.99 457.95"><title>hjort1</title><path d="M629,627s35-21,38-23,16-10,17-10,1-7,1-7-18-3-20-9-2-27-2-27,3.5,19.5,8.5,21.5,20,6,27,5c0,0-7-13-2-15,0,0,0,8,5,13,0,0,11,1,13,0,0,0-19-15-21-25s-5-26-2-26c0,0,4,23,12,31a133.53,133.53,0,0,0,15,13s5-1,3-4-17-6-14-35c0,0,3,14,7,19s10,15,15,15,17-3,27-17,19-33,8-65l5,6s2-10,3-11c0,0,1,22,5,24s12,6,17,1,17-28,17-33,3,14,1,16-7,17-7,17,13,7,23,2c0,0,2,7-10,6s-16,1-23,6-12,15-12,15-16,24-35,37l-5,15s-3,10-11,14c0,0,5,11,5,16,0,0,13,18,19,35,0,0,13,9,17,14,0,0,20,.91,27.92-.74.39-.08.75-.17,1.08-.26,7-2,21-3,28,2s38,7,38,7,78,8,83,7,36,0,52,11,30,13,30,13,24,15,5,36-14,12-14,12-15,26-4,35,32,13,32,13,7,0-5,14l6,4s5,3,1,9-6,24-6,24,2,1,2,2-2,5-2,5-5,47-4,48,1,9-1,11-18,11-19,12-3-5-2-6,8-14,8-21c0,0,5-54-1-60,0,0-18,32-18,34s2,6,0,6c0,0,5,5,4,8s-4,17-5,18-10-3-9-5-6-19-6-19-5-5-4-8,8-9,8-9,2,0,3-3,16-37,16-37-20-15-26-20-29-10-29-10-13-2-17-7-12-9-12-9-12-1-14-2-38,2-38,2-28,11-40,10-10,2-10,2,6,44,6,45,2,4,1,11l15,49s4,3,1,8-5,14-5,14-3,1-7,2-7,0-8-1,6-14,6-14-5-28-15-53c0,0-8-12-11-25s-16-34-16-34-3-5-14,0-27,15-47,22a42.38,42.38,0,0,1-10,7c-6,3-19,50-19,50s2,8,0,11-2,8-2,8-10,10-13,10a14.9,14.9,0,0,1-8-3c-1-1,2-15,3-16s3-5,4-5a3.49,3.49,0,0,0,2-1s-3-5-1-6,19-45,19-45,0-6,2-7c0,0,0-12,8-17s20-15,20-15,9-10,11-10-5-6-5-6a62.38,62.38,0,0,1-13-17c-5-10-39-27-39-27s-19-21-20-37,5-21,5-21l-1-4s-15-1-34-11c0,0-4,3-14,1s-5-5-5-5-7,0-10-8S629,627,629,627Z" transform="translate(-618.07 -467.66)"/></svg>
