<svg id="laks.svg" data-name="Layer 4" xmlns="http://www.w3.org/2000/svg" viewBox="0 0 836.26 323"><title>laks</title><path d="M1633.5,550.5c12-3,18-30,25-57s19-42,19-42c-8,3-21,6-21,6-28,0-89,37-113,50s-51,5-51,5q-13.12-4-25.47-7.7l.12,0c20.65-5.67,19.35-10.33,18.35-13.33s-9-11-21-11-32.12,14-32.12,14l.07,0c-70.46-20.69-114-32-114-32l4-3c-4,2-20-44-20-44-13-3-23-26-23-26-68,34-92,58-92,58-125-2-141,11-196,28s-142,55-142,55-10,7-8,14,15,6,15,6c11,0,40,17,40,17s-21,3-25-3-16-8-16-8c-14,1-10,11-10,11,20,25,113,53,114,54s25,7,25,7,40,10,103,26,150,9,150,9c27,39,51,49,51,49,29-12,15-32,15-38s-13-14-13-14c46,0,81-13,81-13,33,19,67,27,67,27s22-3,23-14,40-62,40-62c-8,1-13-1-13-1,32-19,57-7,57-7,67,46,121,65,121,65s-20-40-21-58S1633.5,550.5,1633.5,550.5Z" transform="translate(-841.24 -389.5)"/></svg>
