<svg id="aborre.svg" data-name="Layer 3" xmlns="http://www.w3.org/2000/svg" viewBox="0 0 704.22 330.84"><title>aborre</title><path d="M914.5,179.5s6-8,13-9c0,0,2,0,6-4s31-19,42-19,50-26,50-26,40-23,47-25a44.42,44.42,0,0,0,1-20c-2-11,1-44-2-50,0,0,10,6,14,0s7-18,7-18l4,10s3,8,13,1a23.45,23.45,0,0,0,7-12s0,6,2,7,6,5,15,0c0,0,4-7,5-9s-2,12,0,13,4,8,12,3,11-14,11-14-1,8,0,8-2,14,14,12a39.31,39.31,0,0,0,7-14s-1,8,0,12,14,6,19,1a60.38,60.38,0,0,1,8-7s-3,8-1,11,11,10,16,7a23,23,0,0,0,7-6s-1,3,2,6,8,8,14,6a41.06,41.06,0,0,0,9-4s-3,8,1,11,8,6,12,6a14.52,14.52,0,0,0,6-1s-4,7,0,12,12,9,12,9-6,6-2,12a17.37,17.37,0,0,0,11,7s-8,4-7,7,7,5,7,5,12,2,13,2,7-4,13-4,46-42,46-42v4s1-1,5,0,8,5,8,5,10,4,11,6,2,3,3,5,4,2,5,9,16,17,16,17,10,11,11,14,13,13,15,23,15,14,15,14-15,8-28,4a3.55,3.55,0,0,0,2,3c2,1,61,28,91,19,0,0,4-7,17-14s43-39,56-44a13.58,13.58,0,0,1,9-8c7-2,5,7,5,7s-12,72-11,73,3,32,6,33,0,25,0,25-1,7,5,19-7,34-19,35c0,0-3,3-17-16s-21-36-67-62c0,0-71-5-94-3,0,0,13,5,14,7s5,13,0,15-25,27-23,40-7,24-19,16-22-6-25-9-27-52-32-52c0,0-32,13-66,12s-71,12-71,12-4,1,4,5,18,24,18,26,6,26-8,31-22-3-22-3-51-54-54-58c0,0-36-5-67-16s-42-10-42-10-19-3-30-10-47-7-47-7-27,0-34-17c0,0,0-5,9-4a81.4,81.4,0,0,0,17,0s-18-17-27-21C907.5,188.5,903.5,183.5,914.5,179.5Z" transform="translate(-906.79 -5.3)"/></svg>
