<svg id="hirt" xmlns="http://www.w3.org/2000/svg" viewBox="0 0 438.99 471.34"><defs><style>.cls-1{stroke:#000;stroke-miterlimit:10;}</style></defs><title>hjort2</title><path d="M1281.5,509.5c2.53-2.53,6.85-9.66,10.5-16.74L1265.5,509C1269.72,511.07,1276.89,514.11,1281.5,509.5Z" transform="translate(-1104.57 -462.78)"/><path class="cls-1" d="M1540.5,822.5l-6-4c12-14,5-14,5-14s-21-4-32-13,4-35,4-35-5,9,14-12-5-36-5-36-14-2-30-13-47-12-52-11-83-7-83-7-31-2-38-7-21-4-28-2c-.33.09-.69.18-1.08.26-7.93,1.65-27.92.74-27.92.74-4-5-17-14-17-14-6-17-19-35-19-35,0-5-5-16-5-16,8-4,11-14,11-14l5-15c19-13,35-37,35-37s5-10,12-15,11-7,23-6,10-6,10-6c-10,5-23-2-23-2s1.69-5.07,3.5-9.71c2.5.29,22.5-18.29,22.5-18.29h-4s-2-19-2-10-12.32,17.5-12.32,17.5h0c.11-5.88-1.68-16.37-1.68-12.5,0,2.47-2.93,9.34-6.5,16.26-7.5,2.25-9.5-14.26-9.5-14.26l-5-14s-2,8-1,9,0,26,0,26-5,5-5,2-10-30-10-30-5,4,1,17,3,20.49,3,20.5l-1-.5c-4-2-5-24-5-24-1,1-3,11-3,11l-5-6c11,32,2,51-8,65s-22,17-27,17-11-10-15-15-7-19-7-19c-3,29,12,32,14,35s-3,4-3,4a133.53,133.53,0,0,1-15-13c-8-8-12-31-12-31-3,0,0,16,2,26s21,25,21,25c-2,1-13,0-13,0-5-5-5-13-5-13-5,2,2,15,2,15-7,1-22-3-27-5S1150,559,1150,559s0,21,2,27,20,9,20,9,0,7-1,7-14,8-17,10-38,23-38,23-13.5,4.5-10.5,12.5,10,8,10,8-5,3,5,5,14-1,14-1c19,10,34,11,34,11l1,4s-6,5-5,21,20,37,20,37,34,17,39,27a62.38,62.38,0,0,0,13,17s7,6,5,6-11,10-11,10-12,10-20,15-8,17-8,17c-2,1-2,7-2,7s-17,44-19,45,1,6,1,6a3.49,3.49,0,0,1-2,1c-1,0-3,4-4,5s-4,15-3,16a14.9,14.9,0,0,0,8,3c3,0,13-10,13-10s0-5,2-8,0-11,0-11,13-47,19-50a42.38,42.38,0,0,0,10-7c20-7,36-17,47-22s14,0,14,0,13,21,16,34,11,25,11,25c10,25,15,53,15,53s-7,13-6,14,4,2,8,1,7-2,7-2,2-9,5-14-1-8-1-8l-15-49c1-7-1-10-1-11s-6-45-6-45-2-3,10-2,40-10,40-10,36-3,38-2,14,2,14,2,8,4,12,9,17,7,17,7,23,5,29,10,26,20,26,20-15,34-16,37-3,3-3,3-7,6-8,9,4,8,4,8,7,17,6,19,8,6,9,5,4-15,5-18-4-8-4-8c2,0,0-4,0-6s18-34,18-34c6,6,1,60,1,60,0,7-7,20-8,21s1,7,2,6,17-10,19-12,2-10,1-11,4-48,4-48,2-4,2-5-2-2-2-2,2-18,6-24S1540.5,822.5,1540.5,822.5Z" transform="translate(-1104.57 -462.78)"/></svg>