<?xml version="1.0" encoding="utf-8"?>
<!-- Generator: Adobe Illustrator 19.0.0, SVG Export Plug-In . SVG Version: 6.00 Build 0)  -->
<svg version="1.1" id="logo" xmlns="http://www.w3.org/2000/svg" xmlns:xlink="http://www.w3.org/1999/xlink" x="0px" y="0px"
	 viewBox="0 0 816.1 836.3" style="enable-background:new 0 0 816.1 836.3;" xml:space="preserve">
<style type="text/css">
	.st0{display:none;fill:#363636;}
	.st1{fill:#B18B2F;stroke:#FFFFFF;stroke-width:6;stroke-miterlimit:10;}
	.st2{fill:#274047;stroke:#FFFFFF;stroke-width:6;stroke-miterlimit:10;}
	.st3{fill:#FFFFFF;}
	.st4{display:none;}
	.st5{display:inline;fill:#B18B2F;}
	.st6{display:inline;fill:#274047;}
	.st7{display:inline;fill:#FFFFFF;}
</style>
<rect id="dark-bg" y="0.1" class="st0" width="816.1" height="836.3"/>
<g id="logo-dark-bg">
	<path class="st1" d="M573.5,423.3c0.1,0,0.2,0,0.3,0c0.5,0,1,0,1.5,0H573.5z"/>
	<path class="st1" d="M242.5,423.3c0.5,0,1,0,1.5,0c0.1,0,0.2,0,0.3,0H242.5z"/>
	<path class="st1" d="M499.6,434.8c14.9-17.6,34.8-31.7,61.2-35.5c81.1-11.7,94.4-78.8,77.3-96.1c0,0,32.6,46.8-67.7,59.9
		c0,0,87.6-152-3.4-183.6c0,0,31.3,18.8,18.3,59.3c0,0-16.9-28.3-57.4-40.7c0,0,118.8,59-60.4,224.6c0,0,16.4-29.4-9.4-61.6
		c1.6,2.1,13.1,19.5-2.4,64.2c-3.6,10.4-7,21.4-10,31.4H409h-37c-2.6-9-5.5-17.9-8.8-26.8c-18-48.2-5.5-66.8-3.8-68.9
		c-25.9,32.2-9.4,61.6-9.4,61.6c-179.3-165.6-60.4-224.6-60.4-224.6c-40.5,12.4-57.4,40.7-57.4,40.7c-13.1-40.4,18.3-59.2,18.3-59.2
		c-91,31.6-3.4,183.6-3.4,183.6c-100.3-13.1-67.7-59.9-67.7-59.9c-17.1,17.3-3.8,84.4,77.3,96.1c26.4,3.8,46.3,17.8,61.2,35.5
		c0,0,0-0.1,0-0.1c8.3,9.8,15,20.8,20.5,31.7l-4.3,4c-25.8-27.2-53.6-46.5-90-47.1c-6.5,0.5-3.1,16.1-2.4,22.9
		c1.1,10.9,5.4,27,19.5,42.2c10.9,11.7,26,18.7,42,19.8l19.1,1.4c4.8,3.7,29.6,88.1,36.9,113.3c2.7,9.4,8.3,17.8,16.2,23.5
		c0.4,0.3,0.9,0.6,1.4,1c9.1,6.4,20.4,9.6,31.7,9.6c0.2,0,0.3,0,0.5,0c0.2,0,0.3,0,0.5,0c11.3-0.1,22.5-3.2,31.7-9.6
		c0.5-0.3,0.9-0.6,1.4-1c7.9-5.8,13.5-14.1,16.2-23.5c7.3-25.2,32.2-109.6,36.9-113.3l19.1-1.4c16-1.1,31.1-8,42-19.8
		c14.1-15.2,18.4-31.3,19.5-42.2c0.7-6.8,4.1-22.4-2.4-22.9c-36.4,0.5-64.2,19.9-90,47.1l-4.6-4.3
		C484.7,455.3,491.4,444.5,499.6,434.8C499.6,434.8,499.6,434.8,499.6,434.8z"/>
	<g>
		<path class="st2" d="M351.3,301c20.5,23.8,30.1,12.1,30.1,12.1c0.8-33.2-20.7-51.9-20.7-51.9c4-24.9,23.5-26.3,23.5-26.3
			c-0.2,13.8,5.5,13,5.5,13c24.1-27.5,37.4,4.1,37.4,4.1c9.3,49.7,51.3,57,51.3,57c47.8-36.6-2-100.7-2-100.7
			c2.7-13.3-0.5-28.3-0.5-28.3c-10.5,7.7-25.5,9.6-25.5,9.6c-90.8-34.8-109.6,67-109.6,67c-27.8,35.6-18.2,59.1-18.2,59.1
			C340.4,316,351.3,301,351.3,301z"/>
		<circle class="st3" cx="475.4" cy="269.5" r="5.6"/>
	</g>
</g>
<g id="logo-white-bg" class="st4">
	<path class="st5" d="M574.2,423.7c0.1,0,0.2,0,0.3,0c0.5,0,1,0,1.5,0H574.2z"/>
	<path class="st5" d="M243.2,423.7c0.5,0,1,0,1.5,0c0.1,0,0.2,0,0.3,0H243.2z"/>
	<path class="st5" d="M500.3,434.8c14.9-17.6,34.8-31.7,61.2-35.5c81.1-11.7,94.4-78.8,77.3-96.1c0,0,32.6,46.8-67.7,59.9
		c0,0,87.6-152-3.4-183.6c0,0,31.3,18.8,18.3,59.3c0,0-16.9-28.3-57.4-40.7c0,0,118.8,59-60.4,224.6c0,0,16.4-29.4-9.4-61.6
		c1.6,2.1,13.1,19.5-2.4,64.2c-3.6,10.4-7,21.4-10,31.4h-36.6h-37c-2.6-9-5.5-17.9-8.8-26.8c-18-48.2-5.5-66.8-3.8-68.9
		c-25.9,32.2-9.4,61.6-9.4,61.6c-179.3-165.6-60.4-224.6-60.4-224.6c-40.5,12.4-57.4,40.7-57.4,40.7c-13.1-40.4,18.3-59.2,18.3-59.2
		c-91,31.6-3.4,183.6-3.4,183.6c-100.3-13.1-67.7-59.9-67.7-59.9c-17.1,17.3-3.8,84.4,77.3,96.1c26.4,3.8,46.3,17.8,61.2,35.5
		c0,0,0-0.1,0-0.1c8.3,9.8,15,20.8,20.5,31.7l-4.3,4c-25.8-27.2-53.6-46.5-90-47.1c-6.5,0.5-3.1,16.1-2.4,22.9
		c1.1,10.9,5.4,27,19.5,42.2c10.9,11.7,26,18.7,42,19.8l19.1,1.4c4.8,3.7,29.6,88.1,36.9,113.3c2.7,9.4,8.3,17.8,16.2,23.5
		c0.4,0.3,0.9,0.6,1.4,1c9.1,6.4,20.4,9.6,31.7,9.6c0.2,0,0.3,0,0.5,0c0.2,0,0.3,0,0.5,0c11.3-0.1,22.5-3.2,31.7-9.6
		c0.5-0.3,0.9-0.6,1.4-1c7.9-5.8,13.5-14.1,16.2-23.5c7.3-25.2,32.2-109.6,36.9-113.3l19.1-1.4c16-1.1,31.1-8,42-19.8
		c14.1-15.2,18.4-31.3,19.5-42.2c0.7-6.8,4.1-22.4-2.4-22.9c-36.4,0.5-64.2,19.9-90,47.1l-4.6-4.3
		C485.4,455.3,492.1,444.5,500.3,434.8C500.3,434.8,500.3,434.8,500.3,434.8z"/>
	<path class="st6" d="M352,301.4c20.5,23.8,30.1,12.1,30.1,12.1c0.8-33.2-20.7-51.9-20.7-51.9c4-24.9,23.5-26.3,23.5-26.3
		c-0.2,13.8,5.5,13,5.5,13c24.1-27.5,37.4,4.1,37.4,4.1c9.3,49.7,51.3,57,51.3,57c47.8-36.6-2-100.7-2-100.7
		c2.7-13.3-0.5-28.3-0.5-28.3c-10.5,7.7-25.5,9.6-25.5,9.6c-90.8-34.8-109.6,67-109.6,67c-27.8,35.6-18.2,59.1-18.2,59.1
		C341.1,316.4,352,301.4,352,301.4z M468.7,267.5c1.3-4.1,5.8-6.3,9.8-5c4.1,1.3,6.3,5.8,5,9.8c-1.3,4.1-5.8,6.3-9.8,5
		C469.6,276,467.3,271.6,468.7,267.5z"/>
	<circle class="st7" cx="476.1" cy="269.9" r="7.8"/>
</g>
</svg>
